%TF.GenerationSoftware,KiCad,Pcbnew,(5.1.10)-1*%
%TF.CreationDate,2024-07-26T12:52:35+05:30*%
%TF.ProjectId,Flyback_DC-DC,466c7962-6163-46b5-9f44-432d44432e6b,rev?*%
%TF.SameCoordinates,Original*%
%TF.FileFunction,Soldermask,Bot*%
%TF.FilePolarity,Negative*%
%FSLAX46Y46*%
G04 Gerber Fmt 4.6, Leading zero omitted, Abs format (unit mm)*
G04 Created by KiCad (PCBNEW (5.1.10)-1) date 2024-07-26 12:52:35*
%MOMM*%
%LPD*%
G01*
G04 APERTURE LIST*
%ADD10C,3.000000*%
%ADD11C,2.000000*%
%ADD12R,2.000000X2.000000*%
%ADD13C,1.600000*%
%ADD14R,1.600000X1.600000*%
%ADD15C,2.250000*%
%ADD16R,3.000000X3.000000*%
%ADD17C,1.350000*%
%ADD18C,1.500000*%
%ADD19R,1.700000X1.700000*%
%ADD20O,1.600000X1.600000*%
G04 APERTURE END LIST*
D10*
%TO.C,T1*%
X152400000Y-74930000D03*
X152400000Y-69930000D03*
X152400000Y-64930000D03*
X152400000Y-59930000D03*
X152400000Y-54930000D03*
X177400000Y-54930000D03*
X177400000Y-59930000D03*
X177400000Y-64930000D03*
X177400000Y-69930000D03*
X177400000Y-74930000D03*
%TD*%
D11*
%TO.C,C1*%
X100330000Y-87550000D03*
D12*
X100330000Y-82550000D03*
%TD*%
%TO.C,C2*%
X115570000Y-82550000D03*
D11*
X115570000Y-87550000D03*
%TD*%
D13*
%TO.C,C9*%
X213360000Y-63190000D03*
D14*
X213360000Y-59690000D03*
%TD*%
%TO.C,C11*%
X231140000Y-59690000D03*
D13*
X231140000Y-63190000D03*
%TD*%
D14*
%TO.C,C13*%
X123190000Y-106680000D03*
D13*
X126690000Y-106680000D03*
%TD*%
D11*
%TO.C,C14*%
X182880000Y-109220000D03*
X190380000Y-109220000D03*
%TD*%
D15*
%TO.C,F1*%
X60960000Y-72390000D03*
X83560000Y-72390000D03*
%TD*%
D10*
%TO.C,J1*%
X71120000Y-46990000D03*
X66040000Y-46990000D03*
D16*
X60960000Y-46990000D03*
%TD*%
%TO.C,J2*%
X231140000Y-45720000D03*
D10*
X236220000Y-45720000D03*
%TD*%
D17*
%TO.C,L1*%
X104180000Y-72390000D03*
X109180000Y-72390000D03*
%TD*%
D18*
%TO.C,RV1*%
X60960000Y-59690000D03*
X68460000Y-59690000D03*
%TD*%
D19*
%TO.C,TP1*%
X58420000Y-90170000D03*
%TD*%
%TO.C,TP2*%
X58420000Y-97790000D03*
%TD*%
%TO.C,TP3*%
X58420000Y-105410000D03*
%TD*%
%TO.C,TP4*%
X58420000Y-113030000D03*
%TD*%
D14*
%TO.C,U2*%
X195580000Y-82550000D03*
D20*
X203200000Y-85090000D03*
X195580000Y-85090000D03*
X203200000Y-82550000D03*
%TD*%
M02*
