%TF.GenerationSoftware,KiCad,Pcbnew,(5.1.10)-1*%
%TF.CreationDate,2024-07-26T12:52:35+05:30*%
%TF.ProjectId,Flyback_DC-DC,466c7962-6163-46b5-9f44-432d44432e6b,rev?*%
%TF.SameCoordinates,Original*%
%TF.FileFunction,Soldermask,Top*%
%TF.FilePolarity,Negative*%
%FSLAX46Y46*%
G04 Gerber Fmt 4.6, Leading zero omitted, Abs format (unit mm)*
G04 Created by KiCad (PCBNEW (5.1.10)-1) date 2024-07-26 12:52:35*
%MOMM*%
%LPD*%
G01*
G04 APERTURE LIST*
%ADD10C,3.000000*%
%ADD11C,2.000000*%
%ADD12R,2.000000X2.000000*%
%ADD13C,1.600000*%
%ADD14R,1.600000X1.600000*%
%ADD15R,1.000000X0.700000*%
%ADD16C,2.250000*%
%ADD17R,1.200000X0.600000*%
%ADD18R,3.000000X3.000000*%
%ADD19C,1.350000*%
%ADD20R,6.400000X5.800000*%
%ADD21R,2.200000X1.200000*%
%ADD22C,1.500000*%
%ADD23R,1.700000X1.700000*%
%ADD24O,1.600000X1.600000*%
G04 APERTURE END LIST*
D10*
%TO.C,T1*%
X152400000Y-74930000D03*
X152400000Y-69930000D03*
X152400000Y-64930000D03*
X152400000Y-59930000D03*
X152400000Y-54930000D03*
X177400000Y-54930000D03*
X177400000Y-59930000D03*
X177400000Y-64930000D03*
X177400000Y-69930000D03*
X177400000Y-74930000D03*
%TD*%
D11*
%TO.C,C1*%
X100330000Y-87550000D03*
D12*
X100330000Y-82550000D03*
%TD*%
%TO.C,C2*%
X115570000Y-82550000D03*
D11*
X115570000Y-87550000D03*
%TD*%
%TO.C,C3*%
G36*
G01*
X75750000Y-123985000D02*
X75750000Y-124935000D01*
G75*
G02*
X75500000Y-125185000I-250000J0D01*
G01*
X74825000Y-125185000D01*
G75*
G02*
X74575000Y-124935000I0J250000D01*
G01*
X74575000Y-123985000D01*
G75*
G02*
X74825000Y-123735000I250000J0D01*
G01*
X75500000Y-123735000D01*
G75*
G02*
X75750000Y-123985000I0J-250000D01*
G01*
G37*
G36*
G01*
X77825000Y-123985000D02*
X77825000Y-124935000D01*
G75*
G02*
X77575000Y-125185000I-250000J0D01*
G01*
X76900000Y-125185000D01*
G75*
G02*
X76650000Y-124935000I0J250000D01*
G01*
X76650000Y-123985000D01*
G75*
G02*
X76900000Y-123735000I250000J0D01*
G01*
X77575000Y-123735000D01*
G75*
G02*
X77825000Y-123985000I0J-250000D01*
G01*
G37*
%TD*%
%TO.C,C4*%
G36*
G01*
X108537500Y-115095000D02*
X108537500Y-116045000D01*
G75*
G02*
X108287500Y-116295000I-250000J0D01*
G01*
X107612500Y-116295000D01*
G75*
G02*
X107362500Y-116045000I0J250000D01*
G01*
X107362500Y-115095000D01*
G75*
G02*
X107612500Y-114845000I250000J0D01*
G01*
X108287500Y-114845000D01*
G75*
G02*
X108537500Y-115095000I0J-250000D01*
G01*
G37*
G36*
G01*
X106462500Y-115095000D02*
X106462500Y-116045000D01*
G75*
G02*
X106212500Y-116295000I-250000J0D01*
G01*
X105537500Y-116295000D01*
G75*
G02*
X105287500Y-116045000I0J250000D01*
G01*
X105287500Y-115095000D01*
G75*
G02*
X105537500Y-114845000I250000J0D01*
G01*
X106212500Y-114845000D01*
G75*
G02*
X106462500Y-115095000I0J-250000D01*
G01*
G37*
%TD*%
%TO.C,C5*%
G36*
G01*
X125445000Y-60309999D02*
X125445000Y-61610001D01*
G75*
G02*
X125195001Y-61860000I-249999J0D01*
G01*
X124544999Y-61860000D01*
G75*
G02*
X124295000Y-61610001I0J249999D01*
G01*
X124295000Y-60309999D01*
G75*
G02*
X124544999Y-60060000I249999J0D01*
G01*
X125195001Y-60060000D01*
G75*
G02*
X125445000Y-60309999I0J-249999D01*
G01*
G37*
G36*
G01*
X122495000Y-60309999D02*
X122495000Y-61610001D01*
G75*
G02*
X122245001Y-61860000I-249999J0D01*
G01*
X121594999Y-61860000D01*
G75*
G02*
X121345000Y-61610001I0J249999D01*
G01*
X121345000Y-60309999D01*
G75*
G02*
X121594999Y-60060000I249999J0D01*
G01*
X122245001Y-60060000D01*
G75*
G02*
X122495000Y-60309999I0J-249999D01*
G01*
G37*
%TD*%
%TO.C,C6*%
G36*
G01*
X99855000Y-128720000D02*
X100805000Y-128720000D01*
G75*
G02*
X101055000Y-128970000I0J-250000D01*
G01*
X101055000Y-129645000D01*
G75*
G02*
X100805000Y-129895000I-250000J0D01*
G01*
X99855000Y-129895000D01*
G75*
G02*
X99605000Y-129645000I0J250000D01*
G01*
X99605000Y-128970000D01*
G75*
G02*
X99855000Y-128720000I250000J0D01*
G01*
G37*
G36*
G01*
X99855000Y-126645000D02*
X100805000Y-126645000D01*
G75*
G02*
X101055000Y-126895000I0J-250000D01*
G01*
X101055000Y-127570000D01*
G75*
G02*
X100805000Y-127820000I-250000J0D01*
G01*
X99855000Y-127820000D01*
G75*
G02*
X99605000Y-127570000I0J250000D01*
G01*
X99605000Y-126895000D01*
G75*
G02*
X99855000Y-126645000I250000J0D01*
G01*
G37*
%TD*%
%TO.C,C7*%
G36*
G01*
X199732500Y-59590000D02*
X199732500Y-59790000D01*
G75*
G02*
X199632500Y-59890000I-100000J0D01*
G01*
X199197500Y-59890000D01*
G75*
G02*
X199097500Y-59790000I0J100000D01*
G01*
X199097500Y-59590000D01*
G75*
G02*
X199197500Y-59490000I100000J0D01*
G01*
X199632500Y-59490000D01*
G75*
G02*
X199732500Y-59590000I0J-100000D01*
G01*
G37*
G36*
G01*
X200547500Y-59590000D02*
X200547500Y-59790000D01*
G75*
G02*
X200447500Y-59890000I-100000J0D01*
G01*
X200012500Y-59890000D01*
G75*
G02*
X199912500Y-59790000I0J100000D01*
G01*
X199912500Y-59590000D01*
G75*
G02*
X200012500Y-59490000I100000J0D01*
G01*
X200447500Y-59490000D01*
G75*
G02*
X200547500Y-59590000I0J-100000D01*
G01*
G37*
%TD*%
%TO.C,C8*%
G36*
G01*
X207805000Y-85540000D02*
X208755000Y-85540000D01*
G75*
G02*
X209005000Y-85790000I0J-250000D01*
G01*
X209005000Y-86465000D01*
G75*
G02*
X208755000Y-86715000I-250000J0D01*
G01*
X207805000Y-86715000D01*
G75*
G02*
X207555000Y-86465000I0J250000D01*
G01*
X207555000Y-85790000D01*
G75*
G02*
X207805000Y-85540000I250000J0D01*
G01*
G37*
G36*
G01*
X207805000Y-83465000D02*
X208755000Y-83465000D01*
G75*
G02*
X209005000Y-83715000I0J-250000D01*
G01*
X209005000Y-84390000D01*
G75*
G02*
X208755000Y-84640000I-250000J0D01*
G01*
X207805000Y-84640000D01*
G75*
G02*
X207555000Y-84390000I0J250000D01*
G01*
X207555000Y-83715000D01*
G75*
G02*
X207805000Y-83465000I250000J0D01*
G01*
G37*
%TD*%
D13*
%TO.C,C9*%
X213360000Y-63190000D03*
D14*
X213360000Y-59690000D03*
%TD*%
%TO.C,C10*%
G36*
G01*
X221662500Y-91915000D02*
X221662500Y-90965000D01*
G75*
G02*
X221912500Y-90715000I250000J0D01*
G01*
X222587500Y-90715000D01*
G75*
G02*
X222837500Y-90965000I0J-250000D01*
G01*
X222837500Y-91915000D01*
G75*
G02*
X222587500Y-92165000I-250000J0D01*
G01*
X221912500Y-92165000D01*
G75*
G02*
X221662500Y-91915000I0J250000D01*
G01*
G37*
G36*
G01*
X223737500Y-91915000D02*
X223737500Y-90965000D01*
G75*
G02*
X223987500Y-90715000I250000J0D01*
G01*
X224662500Y-90715000D01*
G75*
G02*
X224912500Y-90965000I0J-250000D01*
G01*
X224912500Y-91915000D01*
G75*
G02*
X224662500Y-92165000I-250000J0D01*
G01*
X223987500Y-92165000D01*
G75*
G02*
X223737500Y-91915000I0J250000D01*
G01*
G37*
%TD*%
%TO.C,C11*%
X231140000Y-59690000D03*
D13*
X231140000Y-63190000D03*
%TD*%
%TO.C,C12*%
G36*
G01*
X224912500Y-97315000D02*
X224912500Y-98265000D01*
G75*
G02*
X224662500Y-98515000I-250000J0D01*
G01*
X223987500Y-98515000D01*
G75*
G02*
X223737500Y-98265000I0J250000D01*
G01*
X223737500Y-97315000D01*
G75*
G02*
X223987500Y-97065000I250000J0D01*
G01*
X224662500Y-97065000D01*
G75*
G02*
X224912500Y-97315000I0J-250000D01*
G01*
G37*
G36*
G01*
X222837500Y-97315000D02*
X222837500Y-98265000D01*
G75*
G02*
X222587500Y-98515000I-250000J0D01*
G01*
X221912500Y-98515000D01*
G75*
G02*
X221662500Y-98265000I0J250000D01*
G01*
X221662500Y-97315000D01*
G75*
G02*
X221912500Y-97065000I250000J0D01*
G01*
X222587500Y-97065000D01*
G75*
G02*
X222837500Y-97315000I0J-250000D01*
G01*
G37*
%TD*%
D14*
%TO.C,C13*%
X123190000Y-106680000D03*
D13*
X126690000Y-106680000D03*
%TD*%
D11*
%TO.C,C14*%
X182880000Y-109220000D03*
X190380000Y-109220000D03*
%TD*%
D15*
%TO.C,D1*%
X95685000Y-73120000D03*
X95685000Y-69120000D03*
X89735000Y-69120000D03*
X89735000Y-73120000D03*
%TD*%
%TO.C,D2*%
G36*
G01*
X92085000Y-101025000D02*
X92085000Y-102175000D01*
G75*
G02*
X91835000Y-102425000I-250000J0D01*
G01*
X90735000Y-102425000D01*
G75*
G02*
X90485000Y-102175000I0J250000D01*
G01*
X90485000Y-101025000D01*
G75*
G02*
X90735000Y-100775000I250000J0D01*
G01*
X91835000Y-100775000D01*
G75*
G02*
X92085000Y-101025000I0J-250000D01*
G01*
G37*
G36*
G01*
X94935000Y-101025000D02*
X94935000Y-102175000D01*
G75*
G02*
X94685000Y-102425000I-250000J0D01*
G01*
X93585000Y-102425000D01*
G75*
G02*
X93335000Y-102175000I0J250000D01*
G01*
X93335000Y-101025000D01*
G75*
G02*
X93585000Y-100775000I250000J0D01*
G01*
X94685000Y-100775000D01*
G75*
G02*
X94935000Y-101025000I0J-250000D01*
G01*
G37*
%TD*%
%TO.C,D3*%
G36*
G01*
X133665000Y-65345000D02*
X133665000Y-64195000D01*
G75*
G02*
X133915000Y-63945000I250000J0D01*
G01*
X135015000Y-63945000D01*
G75*
G02*
X135265000Y-64195000I0J-250000D01*
G01*
X135265000Y-65345000D01*
G75*
G02*
X135015000Y-65595000I-250000J0D01*
G01*
X133915000Y-65595000D01*
G75*
G02*
X133665000Y-65345000I0J250000D01*
G01*
G37*
G36*
G01*
X136515000Y-65345000D02*
X136515000Y-64195000D01*
G75*
G02*
X136765000Y-63945000I250000J0D01*
G01*
X137865000Y-63945000D01*
G75*
G02*
X138115000Y-64195000I0J-250000D01*
G01*
X138115000Y-65345000D01*
G75*
G02*
X137865000Y-65595000I-250000J0D01*
G01*
X136765000Y-65595000D01*
G75*
G02*
X136515000Y-65345000I0J250000D01*
G01*
G37*
%TD*%
%TO.C,D4*%
G36*
G01*
X196070000Y-64195000D02*
X196070000Y-65345000D01*
G75*
G02*
X195820000Y-65595000I-250000J0D01*
G01*
X194720000Y-65595000D01*
G75*
G02*
X194470000Y-65345000I0J250000D01*
G01*
X194470000Y-64195000D01*
G75*
G02*
X194720000Y-63945000I250000J0D01*
G01*
X195820000Y-63945000D01*
G75*
G02*
X196070000Y-64195000I0J-250000D01*
G01*
G37*
G36*
G01*
X198920000Y-64195000D02*
X198920000Y-65345000D01*
G75*
G02*
X198670000Y-65595000I-250000J0D01*
G01*
X197570000Y-65595000D01*
G75*
G02*
X197320000Y-65345000I0J250000D01*
G01*
X197320000Y-64195000D01*
G75*
G02*
X197570000Y-63945000I250000J0D01*
G01*
X198670000Y-63945000D01*
G75*
G02*
X198920000Y-64195000I0J-250000D01*
G01*
G37*
%TD*%
D16*
%TO.C,F1*%
X60960000Y-72390000D03*
X83560000Y-72390000D03*
%TD*%
D17*
%TO.C,IC1*%
X85110000Y-129540000D03*
X85110000Y-130490000D03*
X85110000Y-131440000D03*
X87610000Y-131440000D03*
X87610000Y-130490000D03*
X87610000Y-129540000D03*
%TD*%
D10*
%TO.C,J1*%
X71120000Y-46990000D03*
X66040000Y-46990000D03*
D18*
X60960000Y-46990000D03*
%TD*%
%TO.C,J2*%
X231140000Y-45720000D03*
D10*
X236220000Y-45720000D03*
%TD*%
D19*
%TO.C,L1*%
X104180000Y-72390000D03*
X109180000Y-72390000D03*
%TD*%
%TO.C,L2*%
G36*
G01*
X220455000Y-60040001D02*
X220455000Y-59339999D01*
G75*
G02*
X220704999Y-59090000I249999J0D01*
G01*
X221255001Y-59090000D01*
G75*
G02*
X221505000Y-59339999I0J-249999D01*
G01*
X221505000Y-60040001D01*
G75*
G02*
X221255001Y-60290000I-249999J0D01*
G01*
X220704999Y-60290000D01*
G75*
G02*
X220455000Y-60040001I0J249999D01*
G01*
G37*
G36*
G01*
X222755000Y-60040001D02*
X222755000Y-59339999D01*
G75*
G02*
X223004999Y-59090000I249999J0D01*
G01*
X223555001Y-59090000D01*
G75*
G02*
X223805000Y-59339999I0J-249999D01*
G01*
X223805000Y-60040001D01*
G75*
G02*
X223555001Y-60290000I-249999J0D01*
G01*
X223004999Y-60290000D01*
G75*
G02*
X222755000Y-60040001I0J249999D01*
G01*
G37*
%TD*%
D20*
%TO.C,Q1*%
X131640000Y-123190000D03*
D21*
X125340000Y-125470000D03*
X125340000Y-120910000D03*
%TD*%
%TO.C,R1*%
G36*
G01*
X106280000Y-63049999D02*
X106280000Y-63950001D01*
G75*
G02*
X106030001Y-64200000I-249999J0D01*
G01*
X105329999Y-64200000D01*
G75*
G02*
X105080000Y-63950001I0J249999D01*
G01*
X105080000Y-63049999D01*
G75*
G02*
X105329999Y-62800000I249999J0D01*
G01*
X106030001Y-62800000D01*
G75*
G02*
X106280000Y-63049999I0J-249999D01*
G01*
G37*
G36*
G01*
X108280000Y-63049999D02*
X108280000Y-63950001D01*
G75*
G02*
X108030001Y-64200000I-249999J0D01*
G01*
X107329999Y-64200000D01*
G75*
G02*
X107080000Y-63950001I0J249999D01*
G01*
X107080000Y-63049999D01*
G75*
G02*
X107329999Y-62800000I249999J0D01*
G01*
X108030001Y-62800000D01*
G75*
G02*
X108280000Y-63049999I0J-249999D01*
G01*
G37*
%TD*%
%TO.C,R2*%
G36*
G01*
X73209999Y-105810000D02*
X74110001Y-105810000D01*
G75*
G02*
X74360000Y-106059999I0J-249999D01*
G01*
X74360000Y-106760001D01*
G75*
G02*
X74110001Y-107010000I-249999J0D01*
G01*
X73209999Y-107010000D01*
G75*
G02*
X72960000Y-106760001I0J249999D01*
G01*
X72960000Y-106059999D01*
G75*
G02*
X73209999Y-105810000I249999J0D01*
G01*
G37*
G36*
G01*
X73209999Y-103810000D02*
X74110001Y-103810000D01*
G75*
G02*
X74360000Y-104059999I0J-249999D01*
G01*
X74360000Y-104760001D01*
G75*
G02*
X74110001Y-105010000I-249999J0D01*
G01*
X73209999Y-105010000D01*
G75*
G02*
X72960000Y-104760001I0J249999D01*
G01*
X72960000Y-104059999D01*
G75*
G02*
X73209999Y-103810000I249999J0D01*
G01*
G37*
%TD*%
%TO.C,R3*%
G36*
G01*
X74110001Y-111360000D02*
X73209999Y-111360000D01*
G75*
G02*
X72960000Y-111110001I0J249999D01*
G01*
X72960000Y-110409999D01*
G75*
G02*
X73209999Y-110160000I249999J0D01*
G01*
X74110001Y-110160000D01*
G75*
G02*
X74360000Y-110409999I0J-249999D01*
G01*
X74360000Y-111110001D01*
G75*
G02*
X74110001Y-111360000I-249999J0D01*
G01*
G37*
G36*
G01*
X74110001Y-113360000D02*
X73209999Y-113360000D01*
G75*
G02*
X72960000Y-113110001I0J249999D01*
G01*
X72960000Y-112409999D01*
G75*
G02*
X73209999Y-112160000I249999J0D01*
G01*
X74110001Y-112160000D01*
G75*
G02*
X74360000Y-112409999I0J-249999D01*
G01*
X74360000Y-113110001D01*
G75*
G02*
X74110001Y-113360000I-249999J0D01*
G01*
G37*
%TD*%
%TO.C,R4*%
G36*
G01*
X109820000Y-101149999D02*
X109820000Y-102050001D01*
G75*
G02*
X109570001Y-102300000I-249999J0D01*
G01*
X108869999Y-102300000D01*
G75*
G02*
X108620000Y-102050001I0J249999D01*
G01*
X108620000Y-101149999D01*
G75*
G02*
X108869999Y-100900000I249999J0D01*
G01*
X109570001Y-100900000D01*
G75*
G02*
X109820000Y-101149999I0J-249999D01*
G01*
G37*
G36*
G01*
X107820000Y-101149999D02*
X107820000Y-102050001D01*
G75*
G02*
X107570001Y-102300000I-249999J0D01*
G01*
X106869999Y-102300000D01*
G75*
G02*
X106620000Y-102050001I0J249999D01*
G01*
X106620000Y-101149999D01*
G75*
G02*
X106869999Y-100900000I249999J0D01*
G01*
X107570001Y-100900000D01*
G75*
G02*
X107820000Y-101149999I0J-249999D01*
G01*
G37*
%TD*%
%TO.C,R5*%
G36*
G01*
X105350000Y-110940001D02*
X105350000Y-110039999D01*
G75*
G02*
X105599999Y-109790000I249999J0D01*
G01*
X106300001Y-109790000D01*
G75*
G02*
X106550000Y-110039999I0J-249999D01*
G01*
X106550000Y-110940001D01*
G75*
G02*
X106300001Y-111190000I-249999J0D01*
G01*
X105599999Y-111190000D01*
G75*
G02*
X105350000Y-110940001I0J249999D01*
G01*
G37*
G36*
G01*
X107350000Y-110940001D02*
X107350000Y-110039999D01*
G75*
G02*
X107599999Y-109790000I249999J0D01*
G01*
X108300001Y-109790000D01*
G75*
G02*
X108550000Y-110039999I0J-249999D01*
G01*
X108550000Y-110940001D01*
G75*
G02*
X108300001Y-111190000I-249999J0D01*
G01*
X107599999Y-111190000D01*
G75*
G02*
X107350000Y-110940001I0J249999D01*
G01*
G37*
%TD*%
%TO.C,R6*%
G36*
G01*
X126374999Y-81795000D02*
X127625001Y-81795000D01*
G75*
G02*
X127875000Y-82044999I0J-249999D01*
G01*
X127875000Y-82670001D01*
G75*
G02*
X127625001Y-82920000I-249999J0D01*
G01*
X126374999Y-82920000D01*
G75*
G02*
X126125000Y-82670001I0J249999D01*
G01*
X126125000Y-82044999D01*
G75*
G02*
X126374999Y-81795000I249999J0D01*
G01*
G37*
G36*
G01*
X126374999Y-84720000D02*
X127625001Y-84720000D01*
G75*
G02*
X127875000Y-84969999I0J-249999D01*
G01*
X127875000Y-85595001D01*
G75*
G02*
X127625001Y-85845000I-249999J0D01*
G01*
X126374999Y-85845000D01*
G75*
G02*
X126125000Y-85595001I0J249999D01*
G01*
X126125000Y-84969999D01*
G75*
G02*
X126374999Y-84720000I249999J0D01*
G01*
G37*
%TD*%
%TO.C,R7*%
G36*
G01*
X126374999Y-91070000D02*
X127625001Y-91070000D01*
G75*
G02*
X127875000Y-91319999I0J-249999D01*
G01*
X127875000Y-91945001D01*
G75*
G02*
X127625001Y-92195000I-249999J0D01*
G01*
X126374999Y-92195000D01*
G75*
G02*
X126125000Y-91945001I0J249999D01*
G01*
X126125000Y-91319999D01*
G75*
G02*
X126374999Y-91070000I249999J0D01*
G01*
G37*
G36*
G01*
X126374999Y-88145000D02*
X127625001Y-88145000D01*
G75*
G02*
X127875000Y-88394999I0J-249999D01*
G01*
X127875000Y-89020001D01*
G75*
G02*
X127625001Y-89270000I-249999J0D01*
G01*
X126374999Y-89270000D01*
G75*
G02*
X126125000Y-89020001I0J249999D01*
G01*
X126125000Y-88394999D01*
G75*
G02*
X126374999Y-88145000I249999J0D01*
G01*
G37*
%TD*%
%TO.C,R8*%
G36*
G01*
X126374999Y-94495000D02*
X127625001Y-94495000D01*
G75*
G02*
X127875000Y-94744999I0J-249999D01*
G01*
X127875000Y-95370001D01*
G75*
G02*
X127625001Y-95620000I-249999J0D01*
G01*
X126374999Y-95620000D01*
G75*
G02*
X126125000Y-95370001I0J249999D01*
G01*
X126125000Y-94744999D01*
G75*
G02*
X126374999Y-94495000I249999J0D01*
G01*
G37*
G36*
G01*
X126374999Y-97420000D02*
X127625001Y-97420000D01*
G75*
G02*
X127875000Y-97669999I0J-249999D01*
G01*
X127875000Y-98295001D01*
G75*
G02*
X127625001Y-98545000I-249999J0D01*
G01*
X126374999Y-98545000D01*
G75*
G02*
X126125000Y-98295001I0J249999D01*
G01*
X126125000Y-97669999D01*
G75*
G02*
X126374999Y-97420000I249999J0D01*
G01*
G37*
%TD*%
%TO.C,R9*%
G36*
G01*
X122520000Y-66859999D02*
X122520000Y-67760001D01*
G75*
G02*
X122270001Y-68010000I-249999J0D01*
G01*
X121569999Y-68010000D01*
G75*
G02*
X121320000Y-67760001I0J249999D01*
G01*
X121320000Y-66859999D01*
G75*
G02*
X121569999Y-66610000I249999J0D01*
G01*
X122270001Y-66610000D01*
G75*
G02*
X122520000Y-66859999I0J-249999D01*
G01*
G37*
G36*
G01*
X124520000Y-66859999D02*
X124520000Y-67760001D01*
G75*
G02*
X124270001Y-68010000I-249999J0D01*
G01*
X123569999Y-68010000D01*
G75*
G02*
X123320000Y-67760001I0J249999D01*
G01*
X123320000Y-66859999D01*
G75*
G02*
X123569999Y-66610000I249999J0D01*
G01*
X124270001Y-66610000D01*
G75*
G02*
X124520000Y-66859999I0J-249999D01*
G01*
G37*
%TD*%
%TO.C,R10*%
G36*
G01*
X131140000Y-64319999D02*
X131140000Y-65220001D01*
G75*
G02*
X130890001Y-65470000I-249999J0D01*
G01*
X130189999Y-65470000D01*
G75*
G02*
X129940000Y-65220001I0J249999D01*
G01*
X129940000Y-64319999D01*
G75*
G02*
X130189999Y-64070000I249999J0D01*
G01*
X130890001Y-64070000D01*
G75*
G02*
X131140000Y-64319999I0J-249999D01*
G01*
G37*
G36*
G01*
X129140000Y-64319999D02*
X129140000Y-65220001D01*
G75*
G02*
X128890001Y-65470000I-249999J0D01*
G01*
X128189999Y-65470000D01*
G75*
G02*
X127940000Y-65220001I0J249999D01*
G01*
X127940000Y-64319999D01*
G75*
G02*
X128189999Y-64070000I249999J0D01*
G01*
X128890001Y-64070000D01*
G75*
G02*
X129140000Y-64319999I0J-249999D01*
G01*
G37*
%TD*%
%TO.C,R11*%
G36*
G01*
X120250000Y-120199999D02*
X120250000Y-121100001D01*
G75*
G02*
X120000001Y-121350000I-249999J0D01*
G01*
X119299999Y-121350000D01*
G75*
G02*
X119050000Y-121100001I0J249999D01*
G01*
X119050000Y-120199999D01*
G75*
G02*
X119299999Y-119950000I249999J0D01*
G01*
X120000001Y-119950000D01*
G75*
G02*
X120250000Y-120199999I0J-249999D01*
G01*
G37*
G36*
G01*
X122250000Y-120199999D02*
X122250000Y-121100001D01*
G75*
G02*
X122000001Y-121350000I-249999J0D01*
G01*
X121299999Y-121350000D01*
G75*
G02*
X121050000Y-121100001I0J249999D01*
G01*
X121050000Y-120199999D01*
G75*
G02*
X121299999Y-119950000I249999J0D01*
G01*
X122000001Y-119950000D01*
G75*
G02*
X122250000Y-120199999I0J-249999D01*
G01*
G37*
%TD*%
%TO.C,R12*%
G36*
G01*
X105740000Y-124009999D02*
X105740000Y-124910001D01*
G75*
G02*
X105490001Y-125160000I-249999J0D01*
G01*
X104789999Y-125160000D01*
G75*
G02*
X104540000Y-124910001I0J249999D01*
G01*
X104540000Y-124009999D01*
G75*
G02*
X104789999Y-123760000I249999J0D01*
G01*
X105490001Y-123760000D01*
G75*
G02*
X105740000Y-124009999I0J-249999D01*
G01*
G37*
G36*
G01*
X103740000Y-124009999D02*
X103740000Y-124910001D01*
G75*
G02*
X103490001Y-125160000I-249999J0D01*
G01*
X102789999Y-125160000D01*
G75*
G02*
X102540000Y-124910001I0J249999D01*
G01*
X102540000Y-124009999D01*
G75*
G02*
X102789999Y-123760000I249999J0D01*
G01*
X103490001Y-123760000D01*
G75*
G02*
X103740000Y-124009999I0J-249999D01*
G01*
G37*
%TD*%
%TO.C,R13*%
G36*
G01*
X108400001Y-127870000D02*
X107499999Y-127870000D01*
G75*
G02*
X107250000Y-127620001I0J249999D01*
G01*
X107250000Y-126919999D01*
G75*
G02*
X107499999Y-126670000I249999J0D01*
G01*
X108400001Y-126670000D01*
G75*
G02*
X108650000Y-126919999I0J-249999D01*
G01*
X108650000Y-127620001D01*
G75*
G02*
X108400001Y-127870000I-249999J0D01*
G01*
G37*
G36*
G01*
X108400001Y-129870000D02*
X107499999Y-129870000D01*
G75*
G02*
X107250000Y-129620001I0J249999D01*
G01*
X107250000Y-128919999D01*
G75*
G02*
X107499999Y-128670000I249999J0D01*
G01*
X108400001Y-128670000D01*
G75*
G02*
X108650000Y-128919999I0J-249999D01*
G01*
X108650000Y-129620001D01*
G75*
G02*
X108400001Y-129870000I-249999J0D01*
G01*
G37*
%TD*%
%TO.C,R14*%
G36*
G01*
X195640000Y-59239999D02*
X195640000Y-60140001D01*
G75*
G02*
X195390001Y-60390000I-249999J0D01*
G01*
X194689999Y-60390000D01*
G75*
G02*
X194440000Y-60140001I0J249999D01*
G01*
X194440000Y-59239999D01*
G75*
G02*
X194689999Y-58990000I249999J0D01*
G01*
X195390001Y-58990000D01*
G75*
G02*
X195640000Y-59239999I0J-249999D01*
G01*
G37*
G36*
G01*
X193640000Y-59239999D02*
X193640000Y-60140001D01*
G75*
G02*
X193390001Y-60390000I-249999J0D01*
G01*
X192689999Y-60390000D01*
G75*
G02*
X192440000Y-60140001I0J249999D01*
G01*
X192440000Y-59239999D01*
G75*
G02*
X192689999Y-58990000I249999J0D01*
G01*
X193390001Y-58990000D01*
G75*
G02*
X193640000Y-59239999I0J-249999D01*
G01*
G37*
%TD*%
%TO.C,R15*%
G36*
G01*
X213810001Y-84690000D02*
X212909999Y-84690000D01*
G75*
G02*
X212660000Y-84440001I0J249999D01*
G01*
X212660000Y-83739999D01*
G75*
G02*
X212909999Y-83490000I249999J0D01*
G01*
X213810001Y-83490000D01*
G75*
G02*
X214060000Y-83739999I0J-249999D01*
G01*
X214060000Y-84440001D01*
G75*
G02*
X213810001Y-84690000I-249999J0D01*
G01*
G37*
G36*
G01*
X213810001Y-86690000D02*
X212909999Y-86690000D01*
G75*
G02*
X212660000Y-86440001I0J249999D01*
G01*
X212660000Y-85739999D01*
G75*
G02*
X212909999Y-85490000I249999J0D01*
G01*
X213810001Y-85490000D01*
G75*
G02*
X214060000Y-85739999I0J-249999D01*
G01*
X214060000Y-86440001D01*
G75*
G02*
X213810001Y-86690000I-249999J0D01*
G01*
G37*
%TD*%
%TO.C,R16*%
G36*
G01*
X222700001Y-80070000D02*
X221799999Y-80070000D01*
G75*
G02*
X221550000Y-79820001I0J249999D01*
G01*
X221550000Y-79119999D01*
G75*
G02*
X221799999Y-78870000I249999J0D01*
G01*
X222700001Y-78870000D01*
G75*
G02*
X222950000Y-79119999I0J-249999D01*
G01*
X222950000Y-79820001D01*
G75*
G02*
X222700001Y-80070000I-249999J0D01*
G01*
G37*
G36*
G01*
X222700001Y-78070000D02*
X221799999Y-78070000D01*
G75*
G02*
X221550000Y-77820001I0J249999D01*
G01*
X221550000Y-77119999D01*
G75*
G02*
X221799999Y-76870000I249999J0D01*
G01*
X222700001Y-76870000D01*
G75*
G02*
X222950000Y-77119999I0J-249999D01*
G01*
X222950000Y-77820001D01*
G75*
G02*
X222700001Y-78070000I-249999J0D01*
G01*
G37*
%TD*%
%TO.C,R17*%
G36*
G01*
X231740000Y-77019999D02*
X231740000Y-77920001D01*
G75*
G02*
X231490001Y-78170000I-249999J0D01*
G01*
X230789999Y-78170000D01*
G75*
G02*
X230540000Y-77920001I0J249999D01*
G01*
X230540000Y-77019999D01*
G75*
G02*
X230789999Y-76770000I249999J0D01*
G01*
X231490001Y-76770000D01*
G75*
G02*
X231740000Y-77019999I0J-249999D01*
G01*
G37*
G36*
G01*
X229740000Y-77019999D02*
X229740000Y-77920001D01*
G75*
G02*
X229490001Y-78170000I-249999J0D01*
G01*
X228789999Y-78170000D01*
G75*
G02*
X228540000Y-77920001I0J249999D01*
G01*
X228540000Y-77019999D01*
G75*
G02*
X228789999Y-76770000I249999J0D01*
G01*
X229490001Y-76770000D01*
G75*
G02*
X229740000Y-77019999I0J-249999D01*
G01*
G37*
%TD*%
%TO.C,R18*%
G36*
G01*
X230000000Y-91890001D02*
X230000000Y-90989999D01*
G75*
G02*
X230249999Y-90740000I249999J0D01*
G01*
X230950001Y-90740000D01*
G75*
G02*
X231200000Y-90989999I0J-249999D01*
G01*
X231200000Y-91890001D01*
G75*
G02*
X230950001Y-92140000I-249999J0D01*
G01*
X230249999Y-92140000D01*
G75*
G02*
X230000000Y-91890001I0J249999D01*
G01*
G37*
G36*
G01*
X228000000Y-91890001D02*
X228000000Y-90989999D01*
G75*
G02*
X228249999Y-90740000I249999J0D01*
G01*
X228950001Y-90740000D01*
G75*
G02*
X229200000Y-90989999I0J-249999D01*
G01*
X229200000Y-91890001D01*
G75*
G02*
X228950001Y-92140000I-249999J0D01*
G01*
X228249999Y-92140000D01*
G75*
G02*
X228000000Y-91890001I0J249999D01*
G01*
G37*
%TD*%
%TO.C,R19*%
G36*
G01*
X230689999Y-71790000D02*
X231590001Y-71790000D01*
G75*
G02*
X231840000Y-72039999I0J-249999D01*
G01*
X231840000Y-72740001D01*
G75*
G02*
X231590001Y-72990000I-249999J0D01*
G01*
X230689999Y-72990000D01*
G75*
G02*
X230440000Y-72740001I0J249999D01*
G01*
X230440000Y-72039999D01*
G75*
G02*
X230689999Y-71790000I249999J0D01*
G01*
G37*
G36*
G01*
X230689999Y-69790000D02*
X231590001Y-69790000D01*
G75*
G02*
X231840000Y-70039999I0J-249999D01*
G01*
X231840000Y-70740001D01*
G75*
G02*
X231590001Y-70990000I-249999J0D01*
G01*
X230689999Y-70990000D01*
G75*
G02*
X230440000Y-70740001I0J249999D01*
G01*
X230440000Y-70039999D01*
G75*
G02*
X230689999Y-69790000I249999J0D01*
G01*
G37*
%TD*%
%TO.C,R20*%
G36*
G01*
X231590001Y-83690000D02*
X230689999Y-83690000D01*
G75*
G02*
X230440000Y-83440001I0J249999D01*
G01*
X230440000Y-82739999D01*
G75*
G02*
X230689999Y-82490000I249999J0D01*
G01*
X231590001Y-82490000D01*
G75*
G02*
X231840000Y-82739999I0J-249999D01*
G01*
X231840000Y-83440001D01*
G75*
G02*
X231590001Y-83690000I-249999J0D01*
G01*
G37*
G36*
G01*
X231590001Y-85690000D02*
X230689999Y-85690000D01*
G75*
G02*
X230440000Y-85440001I0J249999D01*
G01*
X230440000Y-84739999D01*
G75*
G02*
X230689999Y-84490000I249999J0D01*
G01*
X231590001Y-84490000D01*
G75*
G02*
X231840000Y-84739999I0J-249999D01*
G01*
X231840000Y-85440001D01*
G75*
G02*
X231590001Y-85690000I-249999J0D01*
G01*
G37*
%TD*%
%TO.C,R21*%
G36*
G01*
X234499999Y-106080000D02*
X235400001Y-106080000D01*
G75*
G02*
X235650000Y-106329999I0J-249999D01*
G01*
X235650000Y-107030001D01*
G75*
G02*
X235400001Y-107280000I-249999J0D01*
G01*
X234499999Y-107280000D01*
G75*
G02*
X234250000Y-107030001I0J249999D01*
G01*
X234250000Y-106329999D01*
G75*
G02*
X234499999Y-106080000I249999J0D01*
G01*
G37*
G36*
G01*
X234499999Y-108080000D02*
X235400001Y-108080000D01*
G75*
G02*
X235650000Y-108329999I0J-249999D01*
G01*
X235650000Y-109030001D01*
G75*
G02*
X235400001Y-109280000I-249999J0D01*
G01*
X234499999Y-109280000D01*
G75*
G02*
X234250000Y-109030001I0J249999D01*
G01*
X234250000Y-108329999D01*
G75*
G02*
X234499999Y-108080000I249999J0D01*
G01*
G37*
%TD*%
D22*
%TO.C,RV1*%
X60960000Y-59690000D03*
X68460000Y-59690000D03*
%TD*%
D23*
%TO.C,TP1*%
X58420000Y-90170000D03*
%TD*%
%TO.C,TP2*%
X58420000Y-97790000D03*
%TD*%
%TO.C,TP3*%
X58420000Y-105410000D03*
%TD*%
%TO.C,TP4*%
X58420000Y-113030000D03*
%TD*%
%TO.C,U1*%
G36*
G01*
X225020000Y-106195000D02*
X225020000Y-105895000D01*
G75*
G02*
X225170000Y-105745000I150000J0D01*
G01*
X226820000Y-105745000D01*
G75*
G02*
X226970000Y-105895000I0J-150000D01*
G01*
X226970000Y-106195000D01*
G75*
G02*
X226820000Y-106345000I-150000J0D01*
G01*
X225170000Y-106345000D01*
G75*
G02*
X225020000Y-106195000I0J150000D01*
G01*
G37*
G36*
G01*
X225020000Y-107465000D02*
X225020000Y-107165000D01*
G75*
G02*
X225170000Y-107015000I150000J0D01*
G01*
X226820000Y-107015000D01*
G75*
G02*
X226970000Y-107165000I0J-150000D01*
G01*
X226970000Y-107465000D01*
G75*
G02*
X226820000Y-107615000I-150000J0D01*
G01*
X225170000Y-107615000D01*
G75*
G02*
X225020000Y-107465000I0J150000D01*
G01*
G37*
G36*
G01*
X225020000Y-108735000D02*
X225020000Y-108435000D01*
G75*
G02*
X225170000Y-108285000I150000J0D01*
G01*
X226820000Y-108285000D01*
G75*
G02*
X226970000Y-108435000I0J-150000D01*
G01*
X226970000Y-108735000D01*
G75*
G02*
X226820000Y-108885000I-150000J0D01*
G01*
X225170000Y-108885000D01*
G75*
G02*
X225020000Y-108735000I0J150000D01*
G01*
G37*
G36*
G01*
X225020000Y-110005000D02*
X225020000Y-109705000D01*
G75*
G02*
X225170000Y-109555000I150000J0D01*
G01*
X226820000Y-109555000D01*
G75*
G02*
X226970000Y-109705000I0J-150000D01*
G01*
X226970000Y-110005000D01*
G75*
G02*
X226820000Y-110155000I-150000J0D01*
G01*
X225170000Y-110155000D01*
G75*
G02*
X225020000Y-110005000I0J150000D01*
G01*
G37*
G36*
G01*
X220070000Y-110005000D02*
X220070000Y-109705000D01*
G75*
G02*
X220220000Y-109555000I150000J0D01*
G01*
X221870000Y-109555000D01*
G75*
G02*
X222020000Y-109705000I0J-150000D01*
G01*
X222020000Y-110005000D01*
G75*
G02*
X221870000Y-110155000I-150000J0D01*
G01*
X220220000Y-110155000D01*
G75*
G02*
X220070000Y-110005000I0J150000D01*
G01*
G37*
G36*
G01*
X220070000Y-108735000D02*
X220070000Y-108435000D01*
G75*
G02*
X220220000Y-108285000I150000J0D01*
G01*
X221870000Y-108285000D01*
G75*
G02*
X222020000Y-108435000I0J-150000D01*
G01*
X222020000Y-108735000D01*
G75*
G02*
X221870000Y-108885000I-150000J0D01*
G01*
X220220000Y-108885000D01*
G75*
G02*
X220070000Y-108735000I0J150000D01*
G01*
G37*
G36*
G01*
X220070000Y-107465000D02*
X220070000Y-107165000D01*
G75*
G02*
X220220000Y-107015000I150000J0D01*
G01*
X221870000Y-107015000D01*
G75*
G02*
X222020000Y-107165000I0J-150000D01*
G01*
X222020000Y-107465000D01*
G75*
G02*
X221870000Y-107615000I-150000J0D01*
G01*
X220220000Y-107615000D01*
G75*
G02*
X220070000Y-107465000I0J150000D01*
G01*
G37*
G36*
G01*
X220070000Y-106195000D02*
X220070000Y-105895000D01*
G75*
G02*
X220220000Y-105745000I150000J0D01*
G01*
X221870000Y-105745000D01*
G75*
G02*
X222020000Y-105895000I0J-150000D01*
G01*
X222020000Y-106195000D01*
G75*
G02*
X221870000Y-106345000I-150000J0D01*
G01*
X220220000Y-106345000D01*
G75*
G02*
X220070000Y-106195000I0J150000D01*
G01*
G37*
%TD*%
D14*
%TO.C,U2*%
X195580000Y-82550000D03*
D24*
X203200000Y-85090000D03*
X195580000Y-85090000D03*
X203200000Y-82550000D03*
%TD*%
M02*
