M48
; DRILL file {KiCad (5.1.10)-1} date 07/26/24 12:52:39
; FORMAT={-:-/ absolute / inch / decimal}
; #@! TF.CreationDate,2024-07-26T12:52:39+05:30
; #@! TF.GenerationSoftware,Kicad,Pcbnew,(5.1.10)-1
; #@! TF.FileFunction,Plated,1,2,PTH
FMAT,2
INCH
T1C0.0157
T2C0.0315
T3C0.0335
T4C0.0394
T5C0.0591
T6C0.0598
%
G90
G05
T1
X2.4Y-3.95
X2.4Y-4.55
X2.45Y-3.55
X2.9Y-4.95
X3.4Y-5.0
X3.4Y-5.25
X3.4001Y-5.15
X4.15Y-3.9
X4.15Y-5.05
X4.25Y-4.65
X4.8Y-4.65
X5.95Y-3.55
X5.95Y-3.95
X6.05Y-3.55
X6.05Y-3.95
X6.95Y-3.1
T2
X4.85Y-4.2
X4.9878Y-4.2
X7.7Y-3.25
X7.7Y-3.35
X8.0Y-3.25
X8.0Y-3.35
X8.4Y-2.35
X8.4Y-2.4878
X9.1Y-2.35
X9.1Y-2.4878
T3
X4.1016Y-2.85
X4.2984Y-2.85
T4
X2.3Y-3.55
X2.3Y-3.85
X2.3Y-4.15
X2.3Y-4.45
X2.4Y-2.35
X2.6953Y-2.35
X3.95Y-3.25
X3.95Y-3.4469
X4.55Y-3.25
X4.55Y-3.4469
X7.2Y-4.3
X7.4953Y-4.3
T5
X2.4Y-2.85
X3.2898Y-2.85
X6.0Y-2.1626
X6.0Y-2.3594
X6.0Y-2.5563
X6.0Y-2.7531
X6.0Y-2.95
X6.9843Y-2.1626
X6.9843Y-2.3594
X6.9843Y-2.5563
X6.9843Y-2.7531
X6.9843Y-2.95
T6
X2.4Y-1.85
X2.6Y-1.85
X2.8Y-1.85
X9.1Y-1.8
X9.3Y-1.8
T0
M30
