%TF.GenerationSoftware,KiCad,Pcbnew,(5.1.10)-1*%
%TF.CreationDate,2024-07-26T12:52:35+05:30*%
%TF.ProjectId,Flyback_DC-DC,466c7962-6163-46b5-9f44-432d44432e6b,rev?*%
%TF.SameCoordinates,Original*%
%TF.FileFunction,Legend,Top*%
%TF.FilePolarity,Positive*%
%FSLAX46Y46*%
G04 Gerber Fmt 4.6, Leading zero omitted, Abs format (unit mm)*
G04 Created by KiCad (PCBNEW (5.1.10)-1) date 2024-07-26 12:52:35*
%MOMM*%
%LPD*%
G01*
G04 APERTURE LIST*
%ADD10C,0.300000*%
%ADD11C,0.120000*%
%ADD12C,0.200000*%
%ADD13C,0.100000*%
%ADD14C,0.254000*%
%ADD15C,0.150000*%
G04 APERTURE END LIST*
D10*
X106899999Y-40532857D02*
X106399999Y-40532857D01*
X106399999Y-41318571D02*
X106399999Y-39818571D01*
X107114285Y-39818571D01*
X107899999Y-41318571D02*
X107757142Y-41247142D01*
X107685714Y-41104285D01*
X107685714Y-39818571D01*
X108328571Y-40318571D02*
X108685714Y-41318571D01*
X109042857Y-40318571D02*
X108685714Y-41318571D01*
X108542857Y-41675714D01*
X108471428Y-41747142D01*
X108328571Y-41818571D01*
X109614285Y-41318571D02*
X109614285Y-39818571D01*
X109614285Y-40390000D02*
X109757142Y-40318571D01*
X110042857Y-40318571D01*
X110185714Y-40390000D01*
X110257142Y-40461428D01*
X110328571Y-40604285D01*
X110328571Y-41032857D01*
X110257142Y-41175714D01*
X110185714Y-41247142D01*
X110042857Y-41318571D01*
X109757142Y-41318571D01*
X109614285Y-41247142D01*
X111614285Y-41318571D02*
X111614285Y-40532857D01*
X111542857Y-40390000D01*
X111399999Y-40318571D01*
X111114285Y-40318571D01*
X110971428Y-40390000D01*
X111614285Y-41247142D02*
X111471428Y-41318571D01*
X111114285Y-41318571D01*
X110971428Y-41247142D01*
X110899999Y-41104285D01*
X110899999Y-40961428D01*
X110971428Y-40818571D01*
X111114285Y-40747142D01*
X111471428Y-40747142D01*
X111614285Y-40675714D01*
X112971428Y-41247142D02*
X112828571Y-41318571D01*
X112542857Y-41318571D01*
X112399999Y-41247142D01*
X112328571Y-41175714D01*
X112257142Y-41032857D01*
X112257142Y-40604285D01*
X112328571Y-40461428D01*
X112399999Y-40390000D01*
X112542857Y-40318571D01*
X112828571Y-40318571D01*
X112971428Y-40390000D01*
X113614285Y-41318571D02*
X113614285Y-39818571D01*
X113757142Y-40747142D02*
X114185714Y-41318571D01*
X114185714Y-40318571D02*
X113614285Y-40890000D01*
X115971428Y-41318571D02*
X115971428Y-39818571D01*
X116328571Y-39818571D01*
X116542857Y-39890000D01*
X116685714Y-40032857D01*
X116757142Y-40175714D01*
X116828571Y-40461428D01*
X116828571Y-40675714D01*
X116757142Y-40961428D01*
X116685714Y-41104285D01*
X116542857Y-41247142D01*
X116328571Y-41318571D01*
X115971428Y-41318571D01*
X118328571Y-41175714D02*
X118257142Y-41247142D01*
X118042857Y-41318571D01*
X117899999Y-41318571D01*
X117685714Y-41247142D01*
X117542857Y-41104285D01*
X117471428Y-40961428D01*
X117399999Y-40675714D01*
X117399999Y-40461428D01*
X117471428Y-40175714D01*
X117542857Y-40032857D01*
X117685714Y-39890000D01*
X117899999Y-39818571D01*
X118042857Y-39818571D01*
X118257142Y-39890000D01*
X118328571Y-39961428D01*
X118971428Y-40747142D02*
X120114285Y-40747142D01*
X120828571Y-41318571D02*
X120828571Y-39818571D01*
X121185714Y-39818571D01*
X121400000Y-39890000D01*
X121542857Y-40032857D01*
X121614285Y-40175714D01*
X121685714Y-40461428D01*
X121685714Y-40675714D01*
X121614285Y-40961428D01*
X121542857Y-41104285D01*
X121400000Y-41247142D01*
X121185714Y-41318571D01*
X120828571Y-41318571D01*
X123185714Y-41175714D02*
X123114285Y-41247142D01*
X122900000Y-41318571D01*
X122757142Y-41318571D01*
X122542857Y-41247142D01*
X122400000Y-41104285D01*
X122328571Y-40961428D01*
X122257142Y-40675714D01*
X122257142Y-40461428D01*
X122328571Y-40175714D01*
X122400000Y-40032857D01*
X122542857Y-39890000D01*
X122757142Y-39818571D01*
X122900000Y-39818571D01*
X123114285Y-39890000D01*
X123185714Y-39961428D01*
X125828571Y-41175714D02*
X125757142Y-41247142D01*
X125542857Y-41318571D01*
X125400000Y-41318571D01*
X125185714Y-41247142D01*
X125042857Y-41104285D01*
X124971428Y-40961428D01*
X124900000Y-40675714D01*
X124900000Y-40461428D01*
X124971428Y-40175714D01*
X125042857Y-40032857D01*
X125185714Y-39890000D01*
X125400000Y-39818571D01*
X125542857Y-39818571D01*
X125757142Y-39890000D01*
X125828571Y-39961428D01*
X126685714Y-41318571D02*
X126542857Y-41247142D01*
X126471428Y-41175714D01*
X126400000Y-41032857D01*
X126400000Y-40604285D01*
X126471428Y-40461428D01*
X126542857Y-40390000D01*
X126685714Y-40318571D01*
X126900000Y-40318571D01*
X127042857Y-40390000D01*
X127114285Y-40461428D01*
X127185714Y-40604285D01*
X127185714Y-41032857D01*
X127114285Y-41175714D01*
X127042857Y-41247142D01*
X126900000Y-41318571D01*
X126685714Y-41318571D01*
X127828571Y-40318571D02*
X127828571Y-41318571D01*
X127828571Y-40461428D02*
X127900000Y-40390000D01*
X128042857Y-40318571D01*
X128257142Y-40318571D01*
X128400000Y-40390000D01*
X128471428Y-40532857D01*
X128471428Y-41318571D01*
X129042857Y-40318571D02*
X129400000Y-41318571D01*
X129757142Y-40318571D01*
X130900000Y-41247142D02*
X130757142Y-41318571D01*
X130471428Y-41318571D01*
X130328571Y-41247142D01*
X130257142Y-41104285D01*
X130257142Y-40532857D01*
X130328571Y-40390000D01*
X130471428Y-40318571D01*
X130757142Y-40318571D01*
X130900000Y-40390000D01*
X130971428Y-40532857D01*
X130971428Y-40675714D01*
X130257142Y-40818571D01*
X131614285Y-41318571D02*
X131614285Y-40318571D01*
X131614285Y-40604285D02*
X131685714Y-40461428D01*
X131757142Y-40390000D01*
X131900000Y-40318571D01*
X132042857Y-40318571D01*
X132328571Y-40318571D02*
X132900000Y-40318571D01*
X132542857Y-39818571D02*
X132542857Y-41104285D01*
X132614285Y-41247142D01*
X132757142Y-41318571D01*
X132900000Y-41318571D01*
X133971428Y-41247142D02*
X133828571Y-41318571D01*
X133542857Y-41318571D01*
X133400000Y-41247142D01*
X133328571Y-41104285D01*
X133328571Y-40532857D01*
X133400000Y-40390000D01*
X133542857Y-40318571D01*
X133828571Y-40318571D01*
X133971428Y-40390000D01*
X134042857Y-40532857D01*
X134042857Y-40675714D01*
X133328571Y-40818571D01*
X134685714Y-41318571D02*
X134685714Y-40318571D01*
X134685714Y-40604285D02*
X134757142Y-40461428D01*
X134828571Y-40390000D01*
X134971428Y-40318571D01*
X135114285Y-40318571D01*
D11*
%TO.C,T1*%
X146280000Y-42810000D02*
X183520000Y-42810000D01*
X146280000Y-42810000D02*
X146280000Y-87050000D01*
X183520000Y-87050000D02*
X183520000Y-42810000D01*
X183520000Y-87050000D02*
X146280000Y-87050000D01*
%TO.C,C1*%
X103705000Y-80070354D02*
X102705000Y-80070354D01*
X103205000Y-79570354D02*
X103205000Y-80570354D01*
X100929000Y-90131000D02*
X99731000Y-90131000D01*
X101192000Y-90091000D02*
X99468000Y-90091000D01*
X101392000Y-90051000D02*
X99268000Y-90051000D01*
X101560000Y-90011000D02*
X99100000Y-90011000D01*
X101708000Y-89971000D02*
X98952000Y-89971000D01*
X101840000Y-89931000D02*
X98820000Y-89931000D01*
X101960000Y-89891000D02*
X98700000Y-89891000D01*
X102072000Y-89851000D02*
X98588000Y-89851000D01*
X102176000Y-89811000D02*
X98484000Y-89811000D01*
X102274000Y-89771000D02*
X98386000Y-89771000D01*
X102367000Y-89731000D02*
X98293000Y-89731000D01*
X102455000Y-89691000D02*
X98205000Y-89691000D01*
X102539000Y-89651000D02*
X98121000Y-89651000D01*
X102619000Y-89611000D02*
X98041000Y-89611000D01*
X102695000Y-89571000D02*
X97965000Y-89571000D01*
X102769000Y-89531000D02*
X97891000Y-89531000D01*
X102840000Y-89491000D02*
X97820000Y-89491000D01*
X102909000Y-89451000D02*
X97751000Y-89451000D01*
X102975000Y-89411000D02*
X97685000Y-89411000D01*
X103039000Y-89371000D02*
X97621000Y-89371000D01*
X103100000Y-89331000D02*
X97560000Y-89331000D01*
X103160000Y-89291000D02*
X97500000Y-89291000D01*
X103219000Y-89251000D02*
X97441000Y-89251000D01*
X103275000Y-89211000D02*
X97385000Y-89211000D01*
X103330000Y-89171000D02*
X97330000Y-89171000D01*
X103384000Y-89131000D02*
X97276000Y-89131000D01*
X103436000Y-89091000D02*
X97224000Y-89091000D01*
X103486000Y-89051000D02*
X97174000Y-89051000D01*
X103536000Y-89011000D02*
X97124000Y-89011000D01*
X103584000Y-88971000D02*
X97076000Y-88971000D01*
X103631000Y-88931000D02*
X97029000Y-88931000D01*
X103677000Y-88891000D02*
X96983000Y-88891000D01*
X103722000Y-88851000D02*
X96938000Y-88851000D01*
X103766000Y-88811000D02*
X96894000Y-88811000D01*
X99089000Y-88771000D02*
X96852000Y-88771000D01*
X103808000Y-88771000D02*
X101571000Y-88771000D01*
X99089000Y-88731000D02*
X96810000Y-88731000D01*
X103850000Y-88731000D02*
X101571000Y-88731000D01*
X99089000Y-88691000D02*
X96769000Y-88691000D01*
X103891000Y-88691000D02*
X101571000Y-88691000D01*
X99089000Y-88651000D02*
X96729000Y-88651000D01*
X103931000Y-88651000D02*
X101571000Y-88651000D01*
X99089000Y-88611000D02*
X96690000Y-88611000D01*
X103970000Y-88611000D02*
X101571000Y-88611000D01*
X99089000Y-88571000D02*
X96651000Y-88571000D01*
X104009000Y-88571000D02*
X101571000Y-88571000D01*
X99089000Y-88531000D02*
X96614000Y-88531000D01*
X104046000Y-88531000D02*
X101571000Y-88531000D01*
X99089000Y-88491000D02*
X96577000Y-88491000D01*
X104083000Y-88491000D02*
X101571000Y-88491000D01*
X99089000Y-88451000D02*
X96541000Y-88451000D01*
X104119000Y-88451000D02*
X101571000Y-88451000D01*
X99089000Y-88411000D02*
X96506000Y-88411000D01*
X104154000Y-88411000D02*
X101571000Y-88411000D01*
X99089000Y-88371000D02*
X96472000Y-88371000D01*
X104188000Y-88371000D02*
X101571000Y-88371000D01*
X99089000Y-88331000D02*
X96438000Y-88331000D01*
X104222000Y-88331000D02*
X101571000Y-88331000D01*
X99089000Y-88291000D02*
X96405000Y-88291000D01*
X104255000Y-88291000D02*
X101571000Y-88291000D01*
X99089000Y-88251000D02*
X96373000Y-88251000D01*
X104287000Y-88251000D02*
X101571000Y-88251000D01*
X99089000Y-88211000D02*
X96341000Y-88211000D01*
X104319000Y-88211000D02*
X101571000Y-88211000D01*
X99089000Y-88171000D02*
X96310000Y-88171000D01*
X104350000Y-88171000D02*
X101571000Y-88171000D01*
X99089000Y-88131000D02*
X96280000Y-88131000D01*
X104380000Y-88131000D02*
X101571000Y-88131000D01*
X99089000Y-88091000D02*
X96250000Y-88091000D01*
X104410000Y-88091000D02*
X101571000Y-88091000D01*
X99089000Y-88051000D02*
X96220000Y-88051000D01*
X104440000Y-88051000D02*
X101571000Y-88051000D01*
X99089000Y-88011000D02*
X96192000Y-88011000D01*
X104468000Y-88011000D02*
X101571000Y-88011000D01*
X99089000Y-87971000D02*
X96164000Y-87971000D01*
X104496000Y-87971000D02*
X101571000Y-87971000D01*
X99089000Y-87931000D02*
X96136000Y-87931000D01*
X104524000Y-87931000D02*
X101571000Y-87931000D01*
X99089000Y-87891000D02*
X96109000Y-87891000D01*
X104551000Y-87891000D02*
X101571000Y-87891000D01*
X99089000Y-87851000D02*
X96083000Y-87851000D01*
X104577000Y-87851000D02*
X101571000Y-87851000D01*
X99089000Y-87811000D02*
X96057000Y-87811000D01*
X104603000Y-87811000D02*
X101571000Y-87811000D01*
X99089000Y-87771000D02*
X96032000Y-87771000D01*
X104628000Y-87771000D02*
X101571000Y-87771000D01*
X99089000Y-87731000D02*
X96007000Y-87731000D01*
X104653000Y-87731000D02*
X101571000Y-87731000D01*
X99089000Y-87691000D02*
X95983000Y-87691000D01*
X104677000Y-87691000D02*
X101571000Y-87691000D01*
X99089000Y-87651000D02*
X95959000Y-87651000D01*
X104701000Y-87651000D02*
X101571000Y-87651000D01*
X99089000Y-87611000D02*
X95935000Y-87611000D01*
X104725000Y-87611000D02*
X101571000Y-87611000D01*
X99089000Y-87571000D02*
X95913000Y-87571000D01*
X104747000Y-87571000D02*
X101571000Y-87571000D01*
X99089000Y-87531000D02*
X95890000Y-87531000D01*
X104770000Y-87531000D02*
X101571000Y-87531000D01*
X99089000Y-87491000D02*
X95868000Y-87491000D01*
X104792000Y-87491000D02*
X101571000Y-87491000D01*
X99089000Y-87451000D02*
X95847000Y-87451000D01*
X104813000Y-87451000D02*
X101571000Y-87451000D01*
X99089000Y-87411000D02*
X95826000Y-87411000D01*
X104834000Y-87411000D02*
X101571000Y-87411000D01*
X99089000Y-87371000D02*
X95805000Y-87371000D01*
X104855000Y-87371000D02*
X101571000Y-87371000D01*
X99089000Y-87331000D02*
X95785000Y-87331000D01*
X104875000Y-87331000D02*
X101571000Y-87331000D01*
X99089000Y-87291000D02*
X95766000Y-87291000D01*
X104894000Y-87291000D02*
X101571000Y-87291000D01*
X99089000Y-87251000D02*
X95746000Y-87251000D01*
X104914000Y-87251000D02*
X101571000Y-87251000D01*
X99089000Y-87211000D02*
X95727000Y-87211000D01*
X104933000Y-87211000D02*
X101571000Y-87211000D01*
X99089000Y-87171000D02*
X95709000Y-87171000D01*
X104951000Y-87171000D02*
X101571000Y-87171000D01*
X99089000Y-87131000D02*
X95691000Y-87131000D01*
X104969000Y-87131000D02*
X101571000Y-87131000D01*
X99089000Y-87091000D02*
X95673000Y-87091000D01*
X104987000Y-87091000D02*
X101571000Y-87091000D01*
X99089000Y-87051000D02*
X95656000Y-87051000D01*
X105004000Y-87051000D02*
X101571000Y-87051000D01*
X99089000Y-87011000D02*
X95640000Y-87011000D01*
X105020000Y-87011000D02*
X101571000Y-87011000D01*
X99089000Y-86971000D02*
X95623000Y-86971000D01*
X105037000Y-86971000D02*
X101571000Y-86971000D01*
X99089000Y-86931000D02*
X95607000Y-86931000D01*
X105053000Y-86931000D02*
X101571000Y-86931000D01*
X99089000Y-86891000D02*
X95592000Y-86891000D01*
X105068000Y-86891000D02*
X101571000Y-86891000D01*
X99089000Y-86851000D02*
X95576000Y-86851000D01*
X105084000Y-86851000D02*
X101571000Y-86851000D01*
X99089000Y-86811000D02*
X95562000Y-86811000D01*
X105098000Y-86811000D02*
X101571000Y-86811000D01*
X99089000Y-86771000D02*
X95547000Y-86771000D01*
X105113000Y-86771000D02*
X101571000Y-86771000D01*
X99089000Y-86731000D02*
X95533000Y-86731000D01*
X105127000Y-86731000D02*
X101571000Y-86731000D01*
X99089000Y-86691000D02*
X95519000Y-86691000D01*
X105141000Y-86691000D02*
X101571000Y-86691000D01*
X99089000Y-86651000D02*
X95506000Y-86651000D01*
X105154000Y-86651000D02*
X101571000Y-86651000D01*
X99089000Y-86611000D02*
X95493000Y-86611000D01*
X105167000Y-86611000D02*
X101571000Y-86611000D01*
X99089000Y-86571000D02*
X95480000Y-86571000D01*
X105180000Y-86571000D02*
X101571000Y-86571000D01*
X99089000Y-86531000D02*
X95468000Y-86531000D01*
X105192000Y-86531000D02*
X101571000Y-86531000D01*
X99089000Y-86491000D02*
X95456000Y-86491000D01*
X105204000Y-86491000D02*
X101571000Y-86491000D01*
X99089000Y-86451000D02*
X95445000Y-86451000D01*
X105215000Y-86451000D02*
X101571000Y-86451000D01*
X99089000Y-86411000D02*
X95433000Y-86411000D01*
X105227000Y-86411000D02*
X101571000Y-86411000D01*
X99089000Y-86371000D02*
X95423000Y-86371000D01*
X105237000Y-86371000D02*
X101571000Y-86371000D01*
X99089000Y-86331000D02*
X95412000Y-86331000D01*
X105248000Y-86331000D02*
X101571000Y-86331000D01*
X105258000Y-86291000D02*
X95402000Y-86291000D01*
X105268000Y-86251000D02*
X95392000Y-86251000D01*
X105277000Y-86211000D02*
X95383000Y-86211000D01*
X105286000Y-86171000D02*
X95374000Y-86171000D01*
X105295000Y-86131000D02*
X95365000Y-86131000D01*
X105304000Y-86091000D02*
X95356000Y-86091000D01*
X105312000Y-86051000D02*
X95348000Y-86051000D01*
X105320000Y-86011000D02*
X95340000Y-86011000D01*
X105327000Y-85971000D02*
X95333000Y-85971000D01*
X105334000Y-85931000D02*
X95326000Y-85931000D01*
X105341000Y-85891000D02*
X95319000Y-85891000D01*
X105348000Y-85851000D02*
X95312000Y-85851000D01*
X105354000Y-85811000D02*
X95306000Y-85811000D01*
X105360000Y-85771000D02*
X95300000Y-85771000D01*
X105365000Y-85730000D02*
X95295000Y-85730000D01*
X105370000Y-85690000D02*
X95290000Y-85690000D01*
X105375000Y-85650000D02*
X95285000Y-85650000D01*
X105380000Y-85610000D02*
X95280000Y-85610000D01*
X105384000Y-85570000D02*
X95276000Y-85570000D01*
X105388000Y-85530000D02*
X95272000Y-85530000D01*
X105392000Y-85490000D02*
X95268000Y-85490000D01*
X105395000Y-85450000D02*
X95265000Y-85450000D01*
X105398000Y-85410000D02*
X95262000Y-85410000D01*
X105400000Y-85370000D02*
X95260000Y-85370000D01*
X105403000Y-85330000D02*
X95257000Y-85330000D01*
X105405000Y-85290000D02*
X95255000Y-85290000D01*
X105407000Y-85250000D02*
X95253000Y-85250000D01*
X105408000Y-85210000D02*
X95252000Y-85210000D01*
X105409000Y-85170000D02*
X95251000Y-85170000D01*
X105410000Y-85130000D02*
X95250000Y-85130000D01*
X105410000Y-85090000D02*
X95250000Y-85090000D01*
X105410000Y-85050000D02*
X95250000Y-85050000D01*
X105450000Y-85050000D02*
G75*
G03*
X105450000Y-85050000I-5120000J0D01*
G01*
%TO.C,C2*%
X120690000Y-85050000D02*
G75*
G03*
X120690000Y-85050000I-5120000J0D01*
G01*
X120650000Y-85050000D02*
X110490000Y-85050000D01*
X120650000Y-85090000D02*
X110490000Y-85090000D01*
X120650000Y-85130000D02*
X110490000Y-85130000D01*
X120649000Y-85170000D02*
X110491000Y-85170000D01*
X120648000Y-85210000D02*
X110492000Y-85210000D01*
X120647000Y-85250000D02*
X110493000Y-85250000D01*
X120645000Y-85290000D02*
X110495000Y-85290000D01*
X120643000Y-85330000D02*
X110497000Y-85330000D01*
X120640000Y-85370000D02*
X110500000Y-85370000D01*
X120638000Y-85410000D02*
X110502000Y-85410000D01*
X120635000Y-85450000D02*
X110505000Y-85450000D01*
X120632000Y-85490000D02*
X110508000Y-85490000D01*
X120628000Y-85530000D02*
X110512000Y-85530000D01*
X120624000Y-85570000D02*
X110516000Y-85570000D01*
X120620000Y-85610000D02*
X110520000Y-85610000D01*
X120615000Y-85650000D02*
X110525000Y-85650000D01*
X120610000Y-85690000D02*
X110530000Y-85690000D01*
X120605000Y-85730000D02*
X110535000Y-85730000D01*
X120600000Y-85771000D02*
X110540000Y-85771000D01*
X120594000Y-85811000D02*
X110546000Y-85811000D01*
X120588000Y-85851000D02*
X110552000Y-85851000D01*
X120581000Y-85891000D02*
X110559000Y-85891000D01*
X120574000Y-85931000D02*
X110566000Y-85931000D01*
X120567000Y-85971000D02*
X110573000Y-85971000D01*
X120560000Y-86011000D02*
X110580000Y-86011000D01*
X120552000Y-86051000D02*
X110588000Y-86051000D01*
X120544000Y-86091000D02*
X110596000Y-86091000D01*
X120535000Y-86131000D02*
X110605000Y-86131000D01*
X120526000Y-86171000D02*
X110614000Y-86171000D01*
X120517000Y-86211000D02*
X110623000Y-86211000D01*
X120508000Y-86251000D02*
X110632000Y-86251000D01*
X120498000Y-86291000D02*
X110642000Y-86291000D01*
X120488000Y-86331000D02*
X116811000Y-86331000D01*
X114329000Y-86331000D02*
X110652000Y-86331000D01*
X120477000Y-86371000D02*
X116811000Y-86371000D01*
X114329000Y-86371000D02*
X110663000Y-86371000D01*
X120467000Y-86411000D02*
X116811000Y-86411000D01*
X114329000Y-86411000D02*
X110673000Y-86411000D01*
X120455000Y-86451000D02*
X116811000Y-86451000D01*
X114329000Y-86451000D02*
X110685000Y-86451000D01*
X120444000Y-86491000D02*
X116811000Y-86491000D01*
X114329000Y-86491000D02*
X110696000Y-86491000D01*
X120432000Y-86531000D02*
X116811000Y-86531000D01*
X114329000Y-86531000D02*
X110708000Y-86531000D01*
X120420000Y-86571000D02*
X116811000Y-86571000D01*
X114329000Y-86571000D02*
X110720000Y-86571000D01*
X120407000Y-86611000D02*
X116811000Y-86611000D01*
X114329000Y-86611000D02*
X110733000Y-86611000D01*
X120394000Y-86651000D02*
X116811000Y-86651000D01*
X114329000Y-86651000D02*
X110746000Y-86651000D01*
X120381000Y-86691000D02*
X116811000Y-86691000D01*
X114329000Y-86691000D02*
X110759000Y-86691000D01*
X120367000Y-86731000D02*
X116811000Y-86731000D01*
X114329000Y-86731000D02*
X110773000Y-86731000D01*
X120353000Y-86771000D02*
X116811000Y-86771000D01*
X114329000Y-86771000D02*
X110787000Y-86771000D01*
X120338000Y-86811000D02*
X116811000Y-86811000D01*
X114329000Y-86811000D02*
X110802000Y-86811000D01*
X120324000Y-86851000D02*
X116811000Y-86851000D01*
X114329000Y-86851000D02*
X110816000Y-86851000D01*
X120308000Y-86891000D02*
X116811000Y-86891000D01*
X114329000Y-86891000D02*
X110832000Y-86891000D01*
X120293000Y-86931000D02*
X116811000Y-86931000D01*
X114329000Y-86931000D02*
X110847000Y-86931000D01*
X120277000Y-86971000D02*
X116811000Y-86971000D01*
X114329000Y-86971000D02*
X110863000Y-86971000D01*
X120260000Y-87011000D02*
X116811000Y-87011000D01*
X114329000Y-87011000D02*
X110880000Y-87011000D01*
X120244000Y-87051000D02*
X116811000Y-87051000D01*
X114329000Y-87051000D02*
X110896000Y-87051000D01*
X120227000Y-87091000D02*
X116811000Y-87091000D01*
X114329000Y-87091000D02*
X110913000Y-87091000D01*
X120209000Y-87131000D02*
X116811000Y-87131000D01*
X114329000Y-87131000D02*
X110931000Y-87131000D01*
X120191000Y-87171000D02*
X116811000Y-87171000D01*
X114329000Y-87171000D02*
X110949000Y-87171000D01*
X120173000Y-87211000D02*
X116811000Y-87211000D01*
X114329000Y-87211000D02*
X110967000Y-87211000D01*
X120154000Y-87251000D02*
X116811000Y-87251000D01*
X114329000Y-87251000D02*
X110986000Y-87251000D01*
X120134000Y-87291000D02*
X116811000Y-87291000D01*
X114329000Y-87291000D02*
X111006000Y-87291000D01*
X120115000Y-87331000D02*
X116811000Y-87331000D01*
X114329000Y-87331000D02*
X111025000Y-87331000D01*
X120095000Y-87371000D02*
X116811000Y-87371000D01*
X114329000Y-87371000D02*
X111045000Y-87371000D01*
X120074000Y-87411000D02*
X116811000Y-87411000D01*
X114329000Y-87411000D02*
X111066000Y-87411000D01*
X120053000Y-87451000D02*
X116811000Y-87451000D01*
X114329000Y-87451000D02*
X111087000Y-87451000D01*
X120032000Y-87491000D02*
X116811000Y-87491000D01*
X114329000Y-87491000D02*
X111108000Y-87491000D01*
X120010000Y-87531000D02*
X116811000Y-87531000D01*
X114329000Y-87531000D02*
X111130000Y-87531000D01*
X119987000Y-87571000D02*
X116811000Y-87571000D01*
X114329000Y-87571000D02*
X111153000Y-87571000D01*
X119965000Y-87611000D02*
X116811000Y-87611000D01*
X114329000Y-87611000D02*
X111175000Y-87611000D01*
X119941000Y-87651000D02*
X116811000Y-87651000D01*
X114329000Y-87651000D02*
X111199000Y-87651000D01*
X119917000Y-87691000D02*
X116811000Y-87691000D01*
X114329000Y-87691000D02*
X111223000Y-87691000D01*
X119893000Y-87731000D02*
X116811000Y-87731000D01*
X114329000Y-87731000D02*
X111247000Y-87731000D01*
X119868000Y-87771000D02*
X116811000Y-87771000D01*
X114329000Y-87771000D02*
X111272000Y-87771000D01*
X119843000Y-87811000D02*
X116811000Y-87811000D01*
X114329000Y-87811000D02*
X111297000Y-87811000D01*
X119817000Y-87851000D02*
X116811000Y-87851000D01*
X114329000Y-87851000D02*
X111323000Y-87851000D01*
X119791000Y-87891000D02*
X116811000Y-87891000D01*
X114329000Y-87891000D02*
X111349000Y-87891000D01*
X119764000Y-87931000D02*
X116811000Y-87931000D01*
X114329000Y-87931000D02*
X111376000Y-87931000D01*
X119736000Y-87971000D02*
X116811000Y-87971000D01*
X114329000Y-87971000D02*
X111404000Y-87971000D01*
X119708000Y-88011000D02*
X116811000Y-88011000D01*
X114329000Y-88011000D02*
X111432000Y-88011000D01*
X119680000Y-88051000D02*
X116811000Y-88051000D01*
X114329000Y-88051000D02*
X111460000Y-88051000D01*
X119650000Y-88091000D02*
X116811000Y-88091000D01*
X114329000Y-88091000D02*
X111490000Y-88091000D01*
X119620000Y-88131000D02*
X116811000Y-88131000D01*
X114329000Y-88131000D02*
X111520000Y-88131000D01*
X119590000Y-88171000D02*
X116811000Y-88171000D01*
X114329000Y-88171000D02*
X111550000Y-88171000D01*
X119559000Y-88211000D02*
X116811000Y-88211000D01*
X114329000Y-88211000D02*
X111581000Y-88211000D01*
X119527000Y-88251000D02*
X116811000Y-88251000D01*
X114329000Y-88251000D02*
X111613000Y-88251000D01*
X119495000Y-88291000D02*
X116811000Y-88291000D01*
X114329000Y-88291000D02*
X111645000Y-88291000D01*
X119462000Y-88331000D02*
X116811000Y-88331000D01*
X114329000Y-88331000D02*
X111678000Y-88331000D01*
X119428000Y-88371000D02*
X116811000Y-88371000D01*
X114329000Y-88371000D02*
X111712000Y-88371000D01*
X119394000Y-88411000D02*
X116811000Y-88411000D01*
X114329000Y-88411000D02*
X111746000Y-88411000D01*
X119359000Y-88451000D02*
X116811000Y-88451000D01*
X114329000Y-88451000D02*
X111781000Y-88451000D01*
X119323000Y-88491000D02*
X116811000Y-88491000D01*
X114329000Y-88491000D02*
X111817000Y-88491000D01*
X119286000Y-88531000D02*
X116811000Y-88531000D01*
X114329000Y-88531000D02*
X111854000Y-88531000D01*
X119249000Y-88571000D02*
X116811000Y-88571000D01*
X114329000Y-88571000D02*
X111891000Y-88571000D01*
X119210000Y-88611000D02*
X116811000Y-88611000D01*
X114329000Y-88611000D02*
X111930000Y-88611000D01*
X119171000Y-88651000D02*
X116811000Y-88651000D01*
X114329000Y-88651000D02*
X111969000Y-88651000D01*
X119131000Y-88691000D02*
X116811000Y-88691000D01*
X114329000Y-88691000D02*
X112009000Y-88691000D01*
X119090000Y-88731000D02*
X116811000Y-88731000D01*
X114329000Y-88731000D02*
X112050000Y-88731000D01*
X119048000Y-88771000D02*
X116811000Y-88771000D01*
X114329000Y-88771000D02*
X112092000Y-88771000D01*
X119006000Y-88811000D02*
X112134000Y-88811000D01*
X118962000Y-88851000D02*
X112178000Y-88851000D01*
X118917000Y-88891000D02*
X112223000Y-88891000D01*
X118871000Y-88931000D02*
X112269000Y-88931000D01*
X118824000Y-88971000D02*
X112316000Y-88971000D01*
X118776000Y-89011000D02*
X112364000Y-89011000D01*
X118726000Y-89051000D02*
X112414000Y-89051000D01*
X118676000Y-89091000D02*
X112464000Y-89091000D01*
X118624000Y-89131000D02*
X112516000Y-89131000D01*
X118570000Y-89171000D02*
X112570000Y-89171000D01*
X118515000Y-89211000D02*
X112625000Y-89211000D01*
X118459000Y-89251000D02*
X112681000Y-89251000D01*
X118400000Y-89291000D02*
X112740000Y-89291000D01*
X118340000Y-89331000D02*
X112800000Y-89331000D01*
X118279000Y-89371000D02*
X112861000Y-89371000D01*
X118215000Y-89411000D02*
X112925000Y-89411000D01*
X118149000Y-89451000D02*
X112991000Y-89451000D01*
X118080000Y-89491000D02*
X113060000Y-89491000D01*
X118009000Y-89531000D02*
X113131000Y-89531000D01*
X117935000Y-89571000D02*
X113205000Y-89571000D01*
X117859000Y-89611000D02*
X113281000Y-89611000D01*
X117779000Y-89651000D02*
X113361000Y-89651000D01*
X117695000Y-89691000D02*
X113445000Y-89691000D01*
X117607000Y-89731000D02*
X113533000Y-89731000D01*
X117514000Y-89771000D02*
X113626000Y-89771000D01*
X117416000Y-89811000D02*
X113724000Y-89811000D01*
X117312000Y-89851000D02*
X113828000Y-89851000D01*
X117200000Y-89891000D02*
X113940000Y-89891000D01*
X117080000Y-89931000D02*
X114060000Y-89931000D01*
X116948000Y-89971000D02*
X114192000Y-89971000D01*
X116800000Y-90011000D02*
X114340000Y-90011000D01*
X116632000Y-90051000D02*
X114508000Y-90051000D01*
X116432000Y-90091000D02*
X114708000Y-90091000D01*
X116169000Y-90131000D02*
X114971000Y-90131000D01*
X118445000Y-79570354D02*
X118445000Y-80570354D01*
X118945000Y-80070354D02*
X117945000Y-80070354D01*
%TO.C,C3*%
X76461252Y-123725000D02*
X75938748Y-123725000D01*
X76461252Y-125195000D02*
X75938748Y-125195000D01*
%TO.C,C4*%
X107173752Y-116305000D02*
X106651248Y-116305000D01*
X107173752Y-114835000D02*
X106651248Y-114835000D01*
%TO.C,C5*%
X124106252Y-61870000D02*
X122683748Y-61870000D01*
X124106252Y-60050000D02*
X122683748Y-60050000D01*
%TO.C,C6*%
X99595000Y-128008748D02*
X99595000Y-128531252D01*
X101065000Y-128008748D02*
X101065000Y-128531252D01*
%TO.C,C8*%
X207545000Y-84828748D02*
X207545000Y-85351252D01*
X209015000Y-84828748D02*
X209015000Y-85351252D01*
%TO.C,C9*%
X216075000Y-57430302D02*
X215275000Y-57430302D01*
X215675000Y-57030302D02*
X215675000Y-57830302D01*
X213893000Y-65521000D02*
X212827000Y-65521000D01*
X214128000Y-65481000D02*
X212592000Y-65481000D01*
X214308000Y-65441000D02*
X212412000Y-65441000D01*
X214458000Y-65401000D02*
X212262000Y-65401000D01*
X214589000Y-65361000D02*
X212131000Y-65361000D01*
X214706000Y-65321000D02*
X212014000Y-65321000D01*
X214813000Y-65281000D02*
X211907000Y-65281000D01*
X214912000Y-65241000D02*
X211808000Y-65241000D01*
X215005000Y-65201000D02*
X211715000Y-65201000D01*
X215091000Y-65161000D02*
X211629000Y-65161000D01*
X215173000Y-65121000D02*
X211547000Y-65121000D01*
X215250000Y-65081000D02*
X211470000Y-65081000D01*
X215324000Y-65041000D02*
X211396000Y-65041000D01*
X215394000Y-65001000D02*
X211326000Y-65001000D01*
X215462000Y-64961000D02*
X211258000Y-64961000D01*
X215526000Y-64921000D02*
X211194000Y-64921000D01*
X215588000Y-64881000D02*
X211132000Y-64881000D01*
X215647000Y-64841000D02*
X211073000Y-64841000D01*
X215705000Y-64801000D02*
X211015000Y-64801000D01*
X215760000Y-64761000D02*
X210960000Y-64761000D01*
X215814000Y-64721000D02*
X210906000Y-64721000D01*
X215865000Y-64681000D02*
X210855000Y-64681000D01*
X215916000Y-64641000D02*
X210804000Y-64641000D01*
X215964000Y-64601000D02*
X210756000Y-64601000D01*
X216011000Y-64561000D02*
X210709000Y-64561000D01*
X216057000Y-64521000D02*
X210663000Y-64521000D01*
X216101000Y-64481000D02*
X210619000Y-64481000D01*
X216144000Y-64441000D02*
X210576000Y-64441000D01*
X216186000Y-64401000D02*
X210534000Y-64401000D01*
X216227000Y-64361000D02*
X210493000Y-64361000D01*
X216267000Y-64321000D02*
X210453000Y-64321000D01*
X216305000Y-64281000D02*
X210415000Y-64281000D01*
X216343000Y-64241000D02*
X210377000Y-64241000D01*
X212320000Y-64201000D02*
X210341000Y-64201000D01*
X216379000Y-64201000D02*
X214400000Y-64201000D01*
X212320000Y-64161000D02*
X210305000Y-64161000D01*
X216415000Y-64161000D02*
X214400000Y-64161000D01*
X212320000Y-64121000D02*
X210270000Y-64121000D01*
X216450000Y-64121000D02*
X214400000Y-64121000D01*
X212320000Y-64081000D02*
X210236000Y-64081000D01*
X216484000Y-64081000D02*
X214400000Y-64081000D01*
X212320000Y-64041000D02*
X210204000Y-64041000D01*
X216516000Y-64041000D02*
X214400000Y-64041000D01*
X212320000Y-64001000D02*
X210171000Y-64001000D01*
X216549000Y-64001000D02*
X214400000Y-64001000D01*
X212320000Y-63961000D02*
X210140000Y-63961000D01*
X216580000Y-63961000D02*
X214400000Y-63961000D01*
X212320000Y-63921000D02*
X210110000Y-63921000D01*
X216610000Y-63921000D02*
X214400000Y-63921000D01*
X212320000Y-63881000D02*
X210080000Y-63881000D01*
X216640000Y-63881000D02*
X214400000Y-63881000D01*
X212320000Y-63841000D02*
X210051000Y-63841000D01*
X216669000Y-63841000D02*
X214400000Y-63841000D01*
X212320000Y-63801000D02*
X210022000Y-63801000D01*
X216698000Y-63801000D02*
X214400000Y-63801000D01*
X212320000Y-63761000D02*
X209995000Y-63761000D01*
X216725000Y-63761000D02*
X214400000Y-63761000D01*
X212320000Y-63721000D02*
X209968000Y-63721000D01*
X216752000Y-63721000D02*
X214400000Y-63721000D01*
X212320000Y-63681000D02*
X209942000Y-63681000D01*
X216778000Y-63681000D02*
X214400000Y-63681000D01*
X212320000Y-63641000D02*
X209916000Y-63641000D01*
X216804000Y-63641000D02*
X214400000Y-63641000D01*
X212320000Y-63601000D02*
X209891000Y-63601000D01*
X216829000Y-63601000D02*
X214400000Y-63601000D01*
X212320000Y-63561000D02*
X209867000Y-63561000D01*
X216853000Y-63561000D02*
X214400000Y-63561000D01*
X212320000Y-63521000D02*
X209843000Y-63521000D01*
X216877000Y-63521000D02*
X214400000Y-63521000D01*
X212320000Y-63481000D02*
X209820000Y-63481000D01*
X216900000Y-63481000D02*
X214400000Y-63481000D01*
X212320000Y-63441000D02*
X209798000Y-63441000D01*
X216922000Y-63441000D02*
X214400000Y-63441000D01*
X212320000Y-63401000D02*
X209776000Y-63401000D01*
X216944000Y-63401000D02*
X214400000Y-63401000D01*
X212320000Y-63361000D02*
X209754000Y-63361000D01*
X216966000Y-63361000D02*
X214400000Y-63361000D01*
X212320000Y-63321000D02*
X209733000Y-63321000D01*
X216987000Y-63321000D02*
X214400000Y-63321000D01*
X212320000Y-63281000D02*
X209713000Y-63281000D01*
X217007000Y-63281000D02*
X214400000Y-63281000D01*
X212320000Y-63241000D02*
X209694000Y-63241000D01*
X217026000Y-63241000D02*
X214400000Y-63241000D01*
X212320000Y-63201000D02*
X209674000Y-63201000D01*
X217046000Y-63201000D02*
X214400000Y-63201000D01*
X212320000Y-63161000D02*
X209656000Y-63161000D01*
X217064000Y-63161000D02*
X214400000Y-63161000D01*
X212320000Y-63121000D02*
X209638000Y-63121000D01*
X217082000Y-63121000D02*
X214400000Y-63121000D01*
X212320000Y-63081000D02*
X209620000Y-63081000D01*
X217100000Y-63081000D02*
X214400000Y-63081000D01*
X212320000Y-63041000D02*
X209603000Y-63041000D01*
X217117000Y-63041000D02*
X214400000Y-63041000D01*
X212320000Y-63001000D02*
X209586000Y-63001000D01*
X217134000Y-63001000D02*
X214400000Y-63001000D01*
X212320000Y-62961000D02*
X209570000Y-62961000D01*
X217150000Y-62961000D02*
X214400000Y-62961000D01*
X212320000Y-62921000D02*
X209555000Y-62921000D01*
X217165000Y-62921000D02*
X214400000Y-62921000D01*
X212320000Y-62881000D02*
X209539000Y-62881000D01*
X217181000Y-62881000D02*
X214400000Y-62881000D01*
X212320000Y-62841000D02*
X209525000Y-62841000D01*
X217195000Y-62841000D02*
X214400000Y-62841000D01*
X212320000Y-62801000D02*
X209510000Y-62801000D01*
X217210000Y-62801000D02*
X214400000Y-62801000D01*
X212320000Y-62761000D02*
X209497000Y-62761000D01*
X217223000Y-62761000D02*
X214400000Y-62761000D01*
X212320000Y-62721000D02*
X209483000Y-62721000D01*
X217237000Y-62721000D02*
X214400000Y-62721000D01*
X212320000Y-62681000D02*
X209471000Y-62681000D01*
X217249000Y-62681000D02*
X214400000Y-62681000D01*
X212320000Y-62641000D02*
X209458000Y-62641000D01*
X217262000Y-62641000D02*
X214400000Y-62641000D01*
X212320000Y-62601000D02*
X209446000Y-62601000D01*
X217274000Y-62601000D02*
X214400000Y-62601000D01*
X212320000Y-62561000D02*
X209435000Y-62561000D01*
X217285000Y-62561000D02*
X214400000Y-62561000D01*
X212320000Y-62521000D02*
X209424000Y-62521000D01*
X217296000Y-62521000D02*
X214400000Y-62521000D01*
X212320000Y-62481000D02*
X209413000Y-62481000D01*
X217307000Y-62481000D02*
X214400000Y-62481000D01*
X212320000Y-62441000D02*
X209403000Y-62441000D01*
X217317000Y-62441000D02*
X214400000Y-62441000D01*
X212320000Y-62401000D02*
X209393000Y-62401000D01*
X217327000Y-62401000D02*
X214400000Y-62401000D01*
X212320000Y-62361000D02*
X209384000Y-62361000D01*
X217336000Y-62361000D02*
X214400000Y-62361000D01*
X212320000Y-62321000D02*
X209375000Y-62321000D01*
X217345000Y-62321000D02*
X214400000Y-62321000D01*
X212320000Y-62281000D02*
X209366000Y-62281000D01*
X217354000Y-62281000D02*
X214400000Y-62281000D01*
X212320000Y-62241000D02*
X209358000Y-62241000D01*
X217362000Y-62241000D02*
X214400000Y-62241000D01*
X212320000Y-62201000D02*
X209350000Y-62201000D01*
X217370000Y-62201000D02*
X214400000Y-62201000D01*
X212320000Y-62161000D02*
X209343000Y-62161000D01*
X217377000Y-62161000D02*
X214400000Y-62161000D01*
X217384000Y-62120000D02*
X209336000Y-62120000D01*
X217390000Y-62080000D02*
X209330000Y-62080000D01*
X217397000Y-62040000D02*
X209323000Y-62040000D01*
X217402000Y-62000000D02*
X209318000Y-62000000D01*
X217408000Y-61960000D02*
X209312000Y-61960000D01*
X217412000Y-61920000D02*
X209308000Y-61920000D01*
X217417000Y-61880000D02*
X209303000Y-61880000D01*
X217421000Y-61840000D02*
X209299000Y-61840000D01*
X217425000Y-61800000D02*
X209295000Y-61800000D01*
X217428000Y-61760000D02*
X209292000Y-61760000D01*
X217431000Y-61720000D02*
X209289000Y-61720000D01*
X217434000Y-61680000D02*
X209286000Y-61680000D01*
X217436000Y-61640000D02*
X209284000Y-61640000D01*
X217437000Y-61600000D02*
X209283000Y-61600000D01*
X217439000Y-61560000D02*
X209281000Y-61560000D01*
X217440000Y-61520000D02*
X209280000Y-61520000D01*
X217440000Y-61480000D02*
X209280000Y-61480000D01*
X217440000Y-61440000D02*
X209280000Y-61440000D01*
X217480000Y-61440000D02*
G75*
G03*
X217480000Y-61440000I-4120000J0D01*
G01*
%TO.C,C10*%
X223026248Y-90705000D02*
X223548752Y-90705000D01*
X223026248Y-92175000D02*
X223548752Y-92175000D01*
%TO.C,C11*%
X235260000Y-61440000D02*
G75*
G03*
X235260000Y-61440000I-4120000J0D01*
G01*
X235220000Y-61440000D02*
X227060000Y-61440000D01*
X235220000Y-61480000D02*
X227060000Y-61480000D01*
X235220000Y-61520000D02*
X227060000Y-61520000D01*
X235219000Y-61560000D02*
X227061000Y-61560000D01*
X235217000Y-61600000D02*
X227063000Y-61600000D01*
X235216000Y-61640000D02*
X227064000Y-61640000D01*
X235214000Y-61680000D02*
X227066000Y-61680000D01*
X235211000Y-61720000D02*
X227069000Y-61720000D01*
X235208000Y-61760000D02*
X227072000Y-61760000D01*
X235205000Y-61800000D02*
X227075000Y-61800000D01*
X235201000Y-61840000D02*
X227079000Y-61840000D01*
X235197000Y-61880000D02*
X227083000Y-61880000D01*
X235192000Y-61920000D02*
X227088000Y-61920000D01*
X235188000Y-61960000D02*
X227092000Y-61960000D01*
X235182000Y-62000000D02*
X227098000Y-62000000D01*
X235177000Y-62040000D02*
X227103000Y-62040000D01*
X235170000Y-62080000D02*
X227110000Y-62080000D01*
X235164000Y-62120000D02*
X227116000Y-62120000D01*
X235157000Y-62161000D02*
X232180000Y-62161000D01*
X230100000Y-62161000D02*
X227123000Y-62161000D01*
X235150000Y-62201000D02*
X232180000Y-62201000D01*
X230100000Y-62201000D02*
X227130000Y-62201000D01*
X235142000Y-62241000D02*
X232180000Y-62241000D01*
X230100000Y-62241000D02*
X227138000Y-62241000D01*
X235134000Y-62281000D02*
X232180000Y-62281000D01*
X230100000Y-62281000D02*
X227146000Y-62281000D01*
X235125000Y-62321000D02*
X232180000Y-62321000D01*
X230100000Y-62321000D02*
X227155000Y-62321000D01*
X235116000Y-62361000D02*
X232180000Y-62361000D01*
X230100000Y-62361000D02*
X227164000Y-62361000D01*
X235107000Y-62401000D02*
X232180000Y-62401000D01*
X230100000Y-62401000D02*
X227173000Y-62401000D01*
X235097000Y-62441000D02*
X232180000Y-62441000D01*
X230100000Y-62441000D02*
X227183000Y-62441000D01*
X235087000Y-62481000D02*
X232180000Y-62481000D01*
X230100000Y-62481000D02*
X227193000Y-62481000D01*
X235076000Y-62521000D02*
X232180000Y-62521000D01*
X230100000Y-62521000D02*
X227204000Y-62521000D01*
X235065000Y-62561000D02*
X232180000Y-62561000D01*
X230100000Y-62561000D02*
X227215000Y-62561000D01*
X235054000Y-62601000D02*
X232180000Y-62601000D01*
X230100000Y-62601000D02*
X227226000Y-62601000D01*
X235042000Y-62641000D02*
X232180000Y-62641000D01*
X230100000Y-62641000D02*
X227238000Y-62641000D01*
X235029000Y-62681000D02*
X232180000Y-62681000D01*
X230100000Y-62681000D02*
X227251000Y-62681000D01*
X235017000Y-62721000D02*
X232180000Y-62721000D01*
X230100000Y-62721000D02*
X227263000Y-62721000D01*
X235003000Y-62761000D02*
X232180000Y-62761000D01*
X230100000Y-62761000D02*
X227277000Y-62761000D01*
X234990000Y-62801000D02*
X232180000Y-62801000D01*
X230100000Y-62801000D02*
X227290000Y-62801000D01*
X234975000Y-62841000D02*
X232180000Y-62841000D01*
X230100000Y-62841000D02*
X227305000Y-62841000D01*
X234961000Y-62881000D02*
X232180000Y-62881000D01*
X230100000Y-62881000D02*
X227319000Y-62881000D01*
X234945000Y-62921000D02*
X232180000Y-62921000D01*
X230100000Y-62921000D02*
X227335000Y-62921000D01*
X234930000Y-62961000D02*
X232180000Y-62961000D01*
X230100000Y-62961000D02*
X227350000Y-62961000D01*
X234914000Y-63001000D02*
X232180000Y-63001000D01*
X230100000Y-63001000D02*
X227366000Y-63001000D01*
X234897000Y-63041000D02*
X232180000Y-63041000D01*
X230100000Y-63041000D02*
X227383000Y-63041000D01*
X234880000Y-63081000D02*
X232180000Y-63081000D01*
X230100000Y-63081000D02*
X227400000Y-63081000D01*
X234862000Y-63121000D02*
X232180000Y-63121000D01*
X230100000Y-63121000D02*
X227418000Y-63121000D01*
X234844000Y-63161000D02*
X232180000Y-63161000D01*
X230100000Y-63161000D02*
X227436000Y-63161000D01*
X234826000Y-63201000D02*
X232180000Y-63201000D01*
X230100000Y-63201000D02*
X227454000Y-63201000D01*
X234806000Y-63241000D02*
X232180000Y-63241000D01*
X230100000Y-63241000D02*
X227474000Y-63241000D01*
X234787000Y-63281000D02*
X232180000Y-63281000D01*
X230100000Y-63281000D02*
X227493000Y-63281000D01*
X234767000Y-63321000D02*
X232180000Y-63321000D01*
X230100000Y-63321000D02*
X227513000Y-63321000D01*
X234746000Y-63361000D02*
X232180000Y-63361000D01*
X230100000Y-63361000D02*
X227534000Y-63361000D01*
X234724000Y-63401000D02*
X232180000Y-63401000D01*
X230100000Y-63401000D02*
X227556000Y-63401000D01*
X234702000Y-63441000D02*
X232180000Y-63441000D01*
X230100000Y-63441000D02*
X227578000Y-63441000D01*
X234680000Y-63481000D02*
X232180000Y-63481000D01*
X230100000Y-63481000D02*
X227600000Y-63481000D01*
X234657000Y-63521000D02*
X232180000Y-63521000D01*
X230100000Y-63521000D02*
X227623000Y-63521000D01*
X234633000Y-63561000D02*
X232180000Y-63561000D01*
X230100000Y-63561000D02*
X227647000Y-63561000D01*
X234609000Y-63601000D02*
X232180000Y-63601000D01*
X230100000Y-63601000D02*
X227671000Y-63601000D01*
X234584000Y-63641000D02*
X232180000Y-63641000D01*
X230100000Y-63641000D02*
X227696000Y-63641000D01*
X234558000Y-63681000D02*
X232180000Y-63681000D01*
X230100000Y-63681000D02*
X227722000Y-63681000D01*
X234532000Y-63721000D02*
X232180000Y-63721000D01*
X230100000Y-63721000D02*
X227748000Y-63721000D01*
X234505000Y-63761000D02*
X232180000Y-63761000D01*
X230100000Y-63761000D02*
X227775000Y-63761000D01*
X234478000Y-63801000D02*
X232180000Y-63801000D01*
X230100000Y-63801000D02*
X227802000Y-63801000D01*
X234449000Y-63841000D02*
X232180000Y-63841000D01*
X230100000Y-63841000D02*
X227831000Y-63841000D01*
X234420000Y-63881000D02*
X232180000Y-63881000D01*
X230100000Y-63881000D02*
X227860000Y-63881000D01*
X234390000Y-63921000D02*
X232180000Y-63921000D01*
X230100000Y-63921000D02*
X227890000Y-63921000D01*
X234360000Y-63961000D02*
X232180000Y-63961000D01*
X230100000Y-63961000D02*
X227920000Y-63961000D01*
X234329000Y-64001000D02*
X232180000Y-64001000D01*
X230100000Y-64001000D02*
X227951000Y-64001000D01*
X234296000Y-64041000D02*
X232180000Y-64041000D01*
X230100000Y-64041000D02*
X227984000Y-64041000D01*
X234264000Y-64081000D02*
X232180000Y-64081000D01*
X230100000Y-64081000D02*
X228016000Y-64081000D01*
X234230000Y-64121000D02*
X232180000Y-64121000D01*
X230100000Y-64121000D02*
X228050000Y-64121000D01*
X234195000Y-64161000D02*
X232180000Y-64161000D01*
X230100000Y-64161000D02*
X228085000Y-64161000D01*
X234159000Y-64201000D02*
X232180000Y-64201000D01*
X230100000Y-64201000D02*
X228121000Y-64201000D01*
X234123000Y-64241000D02*
X228157000Y-64241000D01*
X234085000Y-64281000D02*
X228195000Y-64281000D01*
X234047000Y-64321000D02*
X228233000Y-64321000D01*
X234007000Y-64361000D02*
X228273000Y-64361000D01*
X233966000Y-64401000D02*
X228314000Y-64401000D01*
X233924000Y-64441000D02*
X228356000Y-64441000D01*
X233881000Y-64481000D02*
X228399000Y-64481000D01*
X233837000Y-64521000D02*
X228443000Y-64521000D01*
X233791000Y-64561000D02*
X228489000Y-64561000D01*
X233744000Y-64601000D02*
X228536000Y-64601000D01*
X233696000Y-64641000D02*
X228584000Y-64641000D01*
X233645000Y-64681000D02*
X228635000Y-64681000D01*
X233594000Y-64721000D02*
X228686000Y-64721000D01*
X233540000Y-64761000D02*
X228740000Y-64761000D01*
X233485000Y-64801000D02*
X228795000Y-64801000D01*
X233427000Y-64841000D02*
X228853000Y-64841000D01*
X233368000Y-64881000D02*
X228912000Y-64881000D01*
X233306000Y-64921000D02*
X228974000Y-64921000D01*
X233242000Y-64961000D02*
X229038000Y-64961000D01*
X233174000Y-65001000D02*
X229106000Y-65001000D01*
X233104000Y-65041000D02*
X229176000Y-65041000D01*
X233030000Y-65081000D02*
X229250000Y-65081000D01*
X232953000Y-65121000D02*
X229327000Y-65121000D01*
X232871000Y-65161000D02*
X229409000Y-65161000D01*
X232785000Y-65201000D02*
X229495000Y-65201000D01*
X232692000Y-65241000D02*
X229588000Y-65241000D01*
X232593000Y-65281000D02*
X229687000Y-65281000D01*
X232486000Y-65321000D02*
X229794000Y-65321000D01*
X232369000Y-65361000D02*
X229911000Y-65361000D01*
X232238000Y-65401000D02*
X230042000Y-65401000D01*
X232088000Y-65441000D02*
X230192000Y-65441000D01*
X231908000Y-65481000D02*
X230372000Y-65481000D01*
X231673000Y-65521000D02*
X230607000Y-65521000D01*
X233455000Y-57030302D02*
X233455000Y-57830302D01*
X233855000Y-57430302D02*
X233055000Y-57430302D01*
%TO.C,C12*%
X223548752Y-98525000D02*
X223026248Y-98525000D01*
X223548752Y-97055000D02*
X223026248Y-97055000D01*
%TO.C,C13*%
X129060000Y-106680000D02*
G75*
G03*
X129060000Y-106680000I-4120000J0D01*
G01*
X124940000Y-102600000D02*
X124940000Y-110760000D01*
X124980000Y-102600000D02*
X124980000Y-110760000D01*
X125020000Y-102600000D02*
X125020000Y-110760000D01*
X125060000Y-102601000D02*
X125060000Y-110759000D01*
X125100000Y-102603000D02*
X125100000Y-110757000D01*
X125140000Y-102604000D02*
X125140000Y-110756000D01*
X125180000Y-102606000D02*
X125180000Y-110754000D01*
X125220000Y-102609000D02*
X125220000Y-110751000D01*
X125260000Y-102612000D02*
X125260000Y-110748000D01*
X125300000Y-102615000D02*
X125300000Y-110745000D01*
X125340000Y-102619000D02*
X125340000Y-110741000D01*
X125380000Y-102623000D02*
X125380000Y-110737000D01*
X125420000Y-102628000D02*
X125420000Y-110732000D01*
X125460000Y-102632000D02*
X125460000Y-110728000D01*
X125500000Y-102638000D02*
X125500000Y-110722000D01*
X125540000Y-102643000D02*
X125540000Y-110717000D01*
X125580000Y-102650000D02*
X125580000Y-110710000D01*
X125620000Y-102656000D02*
X125620000Y-110704000D01*
X125661000Y-102663000D02*
X125661000Y-105640000D01*
X125661000Y-107720000D02*
X125661000Y-110697000D01*
X125701000Y-102670000D02*
X125701000Y-105640000D01*
X125701000Y-107720000D02*
X125701000Y-110690000D01*
X125741000Y-102678000D02*
X125741000Y-105640000D01*
X125741000Y-107720000D02*
X125741000Y-110682000D01*
X125781000Y-102686000D02*
X125781000Y-105640000D01*
X125781000Y-107720000D02*
X125781000Y-110674000D01*
X125821000Y-102695000D02*
X125821000Y-105640000D01*
X125821000Y-107720000D02*
X125821000Y-110665000D01*
X125861000Y-102704000D02*
X125861000Y-105640000D01*
X125861000Y-107720000D02*
X125861000Y-110656000D01*
X125901000Y-102713000D02*
X125901000Y-105640000D01*
X125901000Y-107720000D02*
X125901000Y-110647000D01*
X125941000Y-102723000D02*
X125941000Y-105640000D01*
X125941000Y-107720000D02*
X125941000Y-110637000D01*
X125981000Y-102733000D02*
X125981000Y-105640000D01*
X125981000Y-107720000D02*
X125981000Y-110627000D01*
X126021000Y-102744000D02*
X126021000Y-105640000D01*
X126021000Y-107720000D02*
X126021000Y-110616000D01*
X126061000Y-102755000D02*
X126061000Y-105640000D01*
X126061000Y-107720000D02*
X126061000Y-110605000D01*
X126101000Y-102766000D02*
X126101000Y-105640000D01*
X126101000Y-107720000D02*
X126101000Y-110594000D01*
X126141000Y-102778000D02*
X126141000Y-105640000D01*
X126141000Y-107720000D02*
X126141000Y-110582000D01*
X126181000Y-102791000D02*
X126181000Y-105640000D01*
X126181000Y-107720000D02*
X126181000Y-110569000D01*
X126221000Y-102803000D02*
X126221000Y-105640000D01*
X126221000Y-107720000D02*
X126221000Y-110557000D01*
X126261000Y-102817000D02*
X126261000Y-105640000D01*
X126261000Y-107720000D02*
X126261000Y-110543000D01*
X126301000Y-102830000D02*
X126301000Y-105640000D01*
X126301000Y-107720000D02*
X126301000Y-110530000D01*
X126341000Y-102845000D02*
X126341000Y-105640000D01*
X126341000Y-107720000D02*
X126341000Y-110515000D01*
X126381000Y-102859000D02*
X126381000Y-105640000D01*
X126381000Y-107720000D02*
X126381000Y-110501000D01*
X126421000Y-102875000D02*
X126421000Y-105640000D01*
X126421000Y-107720000D02*
X126421000Y-110485000D01*
X126461000Y-102890000D02*
X126461000Y-105640000D01*
X126461000Y-107720000D02*
X126461000Y-110470000D01*
X126501000Y-102906000D02*
X126501000Y-105640000D01*
X126501000Y-107720000D02*
X126501000Y-110454000D01*
X126541000Y-102923000D02*
X126541000Y-105640000D01*
X126541000Y-107720000D02*
X126541000Y-110437000D01*
X126581000Y-102940000D02*
X126581000Y-105640000D01*
X126581000Y-107720000D02*
X126581000Y-110420000D01*
X126621000Y-102958000D02*
X126621000Y-105640000D01*
X126621000Y-107720000D02*
X126621000Y-110402000D01*
X126661000Y-102976000D02*
X126661000Y-105640000D01*
X126661000Y-107720000D02*
X126661000Y-110384000D01*
X126701000Y-102994000D02*
X126701000Y-105640000D01*
X126701000Y-107720000D02*
X126701000Y-110366000D01*
X126741000Y-103014000D02*
X126741000Y-105640000D01*
X126741000Y-107720000D02*
X126741000Y-110346000D01*
X126781000Y-103033000D02*
X126781000Y-105640000D01*
X126781000Y-107720000D02*
X126781000Y-110327000D01*
X126821000Y-103053000D02*
X126821000Y-105640000D01*
X126821000Y-107720000D02*
X126821000Y-110307000D01*
X126861000Y-103074000D02*
X126861000Y-105640000D01*
X126861000Y-107720000D02*
X126861000Y-110286000D01*
X126901000Y-103096000D02*
X126901000Y-105640000D01*
X126901000Y-107720000D02*
X126901000Y-110264000D01*
X126941000Y-103118000D02*
X126941000Y-105640000D01*
X126941000Y-107720000D02*
X126941000Y-110242000D01*
X126981000Y-103140000D02*
X126981000Y-105640000D01*
X126981000Y-107720000D02*
X126981000Y-110220000D01*
X127021000Y-103163000D02*
X127021000Y-105640000D01*
X127021000Y-107720000D02*
X127021000Y-110197000D01*
X127061000Y-103187000D02*
X127061000Y-105640000D01*
X127061000Y-107720000D02*
X127061000Y-110173000D01*
X127101000Y-103211000D02*
X127101000Y-105640000D01*
X127101000Y-107720000D02*
X127101000Y-110149000D01*
X127141000Y-103236000D02*
X127141000Y-105640000D01*
X127141000Y-107720000D02*
X127141000Y-110124000D01*
X127181000Y-103262000D02*
X127181000Y-105640000D01*
X127181000Y-107720000D02*
X127181000Y-110098000D01*
X127221000Y-103288000D02*
X127221000Y-105640000D01*
X127221000Y-107720000D02*
X127221000Y-110072000D01*
X127261000Y-103315000D02*
X127261000Y-105640000D01*
X127261000Y-107720000D02*
X127261000Y-110045000D01*
X127301000Y-103342000D02*
X127301000Y-105640000D01*
X127301000Y-107720000D02*
X127301000Y-110018000D01*
X127341000Y-103371000D02*
X127341000Y-105640000D01*
X127341000Y-107720000D02*
X127341000Y-109989000D01*
X127381000Y-103400000D02*
X127381000Y-105640000D01*
X127381000Y-107720000D02*
X127381000Y-109960000D01*
X127421000Y-103430000D02*
X127421000Y-105640000D01*
X127421000Y-107720000D02*
X127421000Y-109930000D01*
X127461000Y-103460000D02*
X127461000Y-105640000D01*
X127461000Y-107720000D02*
X127461000Y-109900000D01*
X127501000Y-103491000D02*
X127501000Y-105640000D01*
X127501000Y-107720000D02*
X127501000Y-109869000D01*
X127541000Y-103524000D02*
X127541000Y-105640000D01*
X127541000Y-107720000D02*
X127541000Y-109836000D01*
X127581000Y-103556000D02*
X127581000Y-105640000D01*
X127581000Y-107720000D02*
X127581000Y-109804000D01*
X127621000Y-103590000D02*
X127621000Y-105640000D01*
X127621000Y-107720000D02*
X127621000Y-109770000D01*
X127661000Y-103625000D02*
X127661000Y-105640000D01*
X127661000Y-107720000D02*
X127661000Y-109735000D01*
X127701000Y-103661000D02*
X127701000Y-105640000D01*
X127701000Y-107720000D02*
X127701000Y-109699000D01*
X127741000Y-103697000D02*
X127741000Y-109663000D01*
X127781000Y-103735000D02*
X127781000Y-109625000D01*
X127821000Y-103773000D02*
X127821000Y-109587000D01*
X127861000Y-103813000D02*
X127861000Y-109547000D01*
X127901000Y-103854000D02*
X127901000Y-109506000D01*
X127941000Y-103896000D02*
X127941000Y-109464000D01*
X127981000Y-103939000D02*
X127981000Y-109421000D01*
X128021000Y-103983000D02*
X128021000Y-109377000D01*
X128061000Y-104029000D02*
X128061000Y-109331000D01*
X128101000Y-104076000D02*
X128101000Y-109284000D01*
X128141000Y-104124000D02*
X128141000Y-109236000D01*
X128181000Y-104175000D02*
X128181000Y-109185000D01*
X128221000Y-104226000D02*
X128221000Y-109134000D01*
X128261000Y-104280000D02*
X128261000Y-109080000D01*
X128301000Y-104335000D02*
X128301000Y-109025000D01*
X128341000Y-104393000D02*
X128341000Y-108967000D01*
X128381000Y-104452000D02*
X128381000Y-108908000D01*
X128421000Y-104514000D02*
X128421000Y-108846000D01*
X128461000Y-104578000D02*
X128461000Y-108782000D01*
X128501000Y-104646000D02*
X128501000Y-108714000D01*
X128541000Y-104716000D02*
X128541000Y-108644000D01*
X128581000Y-104790000D02*
X128581000Y-108570000D01*
X128621000Y-104867000D02*
X128621000Y-108493000D01*
X128661000Y-104949000D02*
X128661000Y-108411000D01*
X128701000Y-105035000D02*
X128701000Y-108325000D01*
X128741000Y-105128000D02*
X128741000Y-108232000D01*
X128781000Y-105227000D02*
X128781000Y-108133000D01*
X128821000Y-105334000D02*
X128821000Y-108026000D01*
X128861000Y-105451000D02*
X128861000Y-107909000D01*
X128901000Y-105582000D02*
X128901000Y-107778000D01*
X128941000Y-105732000D02*
X128941000Y-107628000D01*
X128981000Y-105912000D02*
X128981000Y-107448000D01*
X129021000Y-106147000D02*
X129021000Y-107213000D01*
X120530302Y-104365000D02*
X121330302Y-104365000D01*
X120930302Y-103965000D02*
X120930302Y-104765000D01*
%TO.C,C14*%
X181260000Y-106600000D02*
X192000000Y-106600000D01*
X181260000Y-111840000D02*
X192000000Y-111840000D01*
X181260000Y-106600000D02*
X181260000Y-111840000D01*
X192000000Y-106600000D02*
X192000000Y-111840000D01*
%TO.C,D1*%
X90410000Y-73520000D02*
X90410000Y-73720000D01*
X90410000Y-73720000D02*
X96210000Y-73720000D01*
X90410000Y-68720000D02*
X90410000Y-68520000D01*
X90410000Y-68520000D02*
X95010000Y-68520000D01*
X95010000Y-68520000D02*
X95010000Y-68720000D01*
X90410000Y-72620000D02*
X90410000Y-69620000D01*
X95010000Y-69620000D02*
X95010000Y-72620000D01*
%TO.C,D2*%
X95195000Y-100515000D02*
X91110000Y-100515000D01*
X95195000Y-102685000D02*
X95195000Y-100515000D01*
X91110000Y-102685000D02*
X95195000Y-102685000D01*
%TO.C,D3*%
X137490000Y-63685000D02*
X133405000Y-63685000D01*
X133405000Y-63685000D02*
X133405000Y-65855000D01*
X133405000Y-65855000D02*
X137490000Y-65855000D01*
%TO.C,D4*%
X199180000Y-63685000D02*
X195095000Y-63685000D01*
X199180000Y-65855000D02*
X199180000Y-63685000D01*
X195095000Y-65855000D02*
X199180000Y-65855000D01*
D12*
%TO.C,F1*%
X59260000Y-72390000D02*
X59260000Y-72390000D01*
X59360000Y-72390000D02*
X59360000Y-72390000D01*
X59260000Y-72390000D02*
X59260000Y-72390000D01*
D13*
X60060000Y-70640000D02*
X60060000Y-67690000D01*
X60060000Y-70640000D02*
X60060000Y-70640000D01*
X60060000Y-67690000D02*
X60060000Y-70640000D01*
X60060000Y-67690000D02*
X60060000Y-67690000D01*
X84460000Y-67690000D02*
X84460000Y-67690000D01*
X60060000Y-67690000D02*
X84460000Y-67690000D01*
X60060000Y-67690000D02*
X60060000Y-67690000D01*
X84460000Y-67690000D02*
X60060000Y-67690000D01*
X84460000Y-67690000D02*
X84460000Y-70640000D01*
X84460000Y-67690000D02*
X84460000Y-67690000D01*
X84460000Y-70640000D02*
X84460000Y-67690000D01*
X84460000Y-70640000D02*
X84460000Y-70640000D01*
X84460000Y-77090000D02*
X84460000Y-74140000D01*
X84460000Y-77090000D02*
X84460000Y-77090000D01*
X84460000Y-74140000D02*
X84460000Y-77090000D01*
X84460000Y-74140000D02*
X84460000Y-74140000D01*
X60060000Y-77090000D02*
X60060000Y-77090000D01*
X84460000Y-77090000D02*
X60060000Y-77090000D01*
X84460000Y-77090000D02*
X84460000Y-77090000D01*
X60060000Y-77090000D02*
X84460000Y-77090000D01*
X60060000Y-77090000D02*
X60060000Y-74140000D01*
X60060000Y-77090000D02*
X60060000Y-77090000D01*
X60060000Y-74140000D02*
X60060000Y-77090000D01*
X60060000Y-74140000D02*
X60060000Y-74140000D01*
D12*
X59360000Y-72390000D02*
G75*
G02*
X59260000Y-72390000I-50000J0D01*
G01*
X59260000Y-72390000D02*
G75*
G02*
X59360000Y-72390000I50000J0D01*
G01*
X59360000Y-72390000D02*
G75*
G02*
X59260000Y-72390000I-50000J0D01*
G01*
%TO.C,IC1*%
X84510000Y-128890000D02*
X85710000Y-128890000D01*
X86060000Y-131940000D02*
X86060000Y-129040000D01*
X86660000Y-131940000D02*
X86060000Y-131940000D01*
X86660000Y-129040000D02*
X86660000Y-131940000D01*
X86060000Y-129040000D02*
X86660000Y-129040000D01*
D11*
%TO.C,J1*%
X58420000Y-50800000D02*
X73660000Y-50800000D01*
X58420000Y-43180000D02*
X73660000Y-43180000D01*
X58420000Y-49530000D02*
X73660000Y-49530000D01*
X73660000Y-50800000D02*
X73660000Y-43180000D01*
X58420000Y-50800000D02*
X58420000Y-43180000D01*
%TO.C,J2*%
X238760000Y-48260000D02*
X228600000Y-48260000D01*
X238760000Y-49530000D02*
X238760000Y-41910000D01*
X238760000Y-41910000D02*
X228600000Y-41910000D01*
X228600000Y-41910000D02*
X228600000Y-49530000D01*
X228600000Y-49530000D02*
X238760000Y-49530000D01*
D14*
%TO.C,L1*%
X101812000Y-72388000D02*
G75*
G03*
X101812000Y-72388000I-44000J0D01*
G01*
X111030000Y-72390000D02*
G75*
G03*
X111030000Y-72390000I-4350000J0D01*
G01*
D11*
%TO.C,L2*%
X221719758Y-59130000D02*
X222540242Y-59130000D01*
X221719758Y-60250000D02*
X222540242Y-60250000D01*
%TO.C,Q1*%
X127070000Y-126370000D02*
X125970000Y-126370000D01*
X127070000Y-126640000D02*
X127070000Y-126370000D01*
X128570000Y-126640000D02*
X127070000Y-126640000D01*
X127070000Y-120010000D02*
X124240000Y-120010000D01*
X127070000Y-119740000D02*
X127070000Y-120010000D01*
X128570000Y-119740000D02*
X127070000Y-119740000D01*
%TO.C,R1*%
X106907064Y-62765000D02*
X106452936Y-62765000D01*
X106907064Y-64235000D02*
X106452936Y-64235000D01*
%TO.C,R2*%
X72925000Y-105182936D02*
X72925000Y-105637064D01*
X74395000Y-105182936D02*
X74395000Y-105637064D01*
%TO.C,R3*%
X74395000Y-111987064D02*
X74395000Y-111532936D01*
X72925000Y-111987064D02*
X72925000Y-111532936D01*
%TO.C,R4*%
X108447064Y-102335000D02*
X107992936Y-102335000D01*
X108447064Y-100865000D02*
X107992936Y-100865000D01*
%TO.C,R5*%
X106722936Y-109755000D02*
X107177064Y-109755000D01*
X106722936Y-111225000D02*
X107177064Y-111225000D01*
%TO.C,R6*%
X127910000Y-83092936D02*
X127910000Y-84547064D01*
X126090000Y-83092936D02*
X126090000Y-84547064D01*
%TO.C,R7*%
X126090000Y-89442936D02*
X126090000Y-90897064D01*
X127910000Y-89442936D02*
X127910000Y-90897064D01*
%TO.C,R8*%
X127910000Y-95792936D02*
X127910000Y-97247064D01*
X126090000Y-95792936D02*
X126090000Y-97247064D01*
%TO.C,R9*%
X123147064Y-66575000D02*
X122692936Y-66575000D01*
X123147064Y-68045000D02*
X122692936Y-68045000D01*
%TO.C,R10*%
X129767064Y-65505000D02*
X129312936Y-65505000D01*
X129767064Y-64035000D02*
X129312936Y-64035000D01*
%TO.C,R11*%
X120877064Y-119915000D02*
X120422936Y-119915000D01*
X120877064Y-121385000D02*
X120422936Y-121385000D01*
%TO.C,R12*%
X104367064Y-125195000D02*
X103912936Y-125195000D01*
X104367064Y-123725000D02*
X103912936Y-123725000D01*
%TO.C,R13*%
X108685000Y-128497064D02*
X108685000Y-128042936D01*
X107215000Y-128497064D02*
X107215000Y-128042936D01*
%TO.C,R14*%
X194267064Y-60425000D02*
X193812936Y-60425000D01*
X194267064Y-58955000D02*
X193812936Y-58955000D01*
%TO.C,R15*%
X214095000Y-85317064D02*
X214095000Y-84862936D01*
X212625000Y-85317064D02*
X212625000Y-84862936D01*
%TO.C,R16*%
X221515000Y-78697064D02*
X221515000Y-78242936D01*
X222985000Y-78697064D02*
X222985000Y-78242936D01*
%TO.C,R17*%
X230367064Y-78205000D02*
X229912936Y-78205000D01*
X230367064Y-76735000D02*
X229912936Y-76735000D01*
%TO.C,R18*%
X229372936Y-92175000D02*
X229827064Y-92175000D01*
X229372936Y-90705000D02*
X229827064Y-90705000D01*
%TO.C,R19*%
X230405000Y-71162936D02*
X230405000Y-71617064D01*
X231875000Y-71162936D02*
X231875000Y-71617064D01*
%TO.C,R20*%
X231875000Y-84317064D02*
X231875000Y-83862936D01*
X230405000Y-84317064D02*
X230405000Y-83862936D01*
%TO.C,R21*%
X235685000Y-107452936D02*
X235685000Y-107907064D01*
X234215000Y-107452936D02*
X234215000Y-107907064D01*
D13*
%TO.C,RV1*%
X56460000Y-62290000D02*
X56460000Y-57090000D01*
X72960000Y-62290000D02*
X56460000Y-62290000D01*
X72960000Y-57090000D02*
X72960000Y-62290000D01*
X56460000Y-57090000D02*
X72960000Y-57090000D01*
D11*
%TO.C,TP1*%
X57090000Y-91500000D02*
X59750000Y-91500000D01*
X57090000Y-91440000D02*
X57090000Y-91500000D01*
X59750000Y-91440000D02*
X59750000Y-91500000D01*
X57090000Y-91440000D02*
X59750000Y-91440000D01*
X57090000Y-90170000D02*
X57090000Y-88840000D01*
X57090000Y-88840000D02*
X58420000Y-88840000D01*
%TO.C,TP2*%
X57090000Y-96460000D02*
X58420000Y-96460000D01*
X57090000Y-97790000D02*
X57090000Y-96460000D01*
X57090000Y-99060000D02*
X59750000Y-99060000D01*
X59750000Y-99060000D02*
X59750000Y-99120000D01*
X57090000Y-99060000D02*
X57090000Y-99120000D01*
X57090000Y-99120000D02*
X59750000Y-99120000D01*
%TO.C,TP3*%
X57090000Y-106740000D02*
X59750000Y-106740000D01*
X57090000Y-106680000D02*
X57090000Y-106740000D01*
X59750000Y-106680000D02*
X59750000Y-106740000D01*
X57090000Y-106680000D02*
X59750000Y-106680000D01*
X57090000Y-105410000D02*
X57090000Y-104080000D01*
X57090000Y-104080000D02*
X58420000Y-104080000D01*
%TO.C,TP4*%
X57090000Y-111700000D02*
X58420000Y-111700000D01*
X57090000Y-113030000D02*
X57090000Y-111700000D01*
X57090000Y-114300000D02*
X59750000Y-114300000D01*
X59750000Y-114300000D02*
X59750000Y-114360000D01*
X57090000Y-114300000D02*
X57090000Y-114360000D01*
X57090000Y-114360000D02*
X59750000Y-114360000D01*
%TO.C,U1*%
X223520000Y-105390000D02*
X220070000Y-105390000D01*
X223520000Y-105390000D02*
X225470000Y-105390000D01*
X223520000Y-110510000D02*
X221570000Y-110510000D01*
X223520000Y-110510000D02*
X225470000Y-110510000D01*
%TO.C,U2*%
X198390000Y-81220000D02*
X196740000Y-81220000D01*
X196740000Y-81220000D02*
X196740000Y-86420000D01*
X196740000Y-86420000D02*
X202040000Y-86420000D01*
X202040000Y-86420000D02*
X202040000Y-81220000D01*
X202040000Y-81220000D02*
X200390000Y-81220000D01*
X200390000Y-81220000D02*
G75*
G02*
X198390000Y-81220000I-1000000J0D01*
G01*
%TO.C,T1*%
D15*
X164138095Y-40252380D02*
X164709523Y-40252380D01*
X164423809Y-41252380D02*
X164423809Y-40252380D01*
X165566666Y-41252380D02*
X164995238Y-41252380D01*
X165280952Y-41252380D02*
X165280952Y-40252380D01*
X165185714Y-40395238D01*
X165090476Y-40490476D01*
X164995238Y-40538095D01*
X149352380Y-65739523D02*
X148352380Y-65739523D01*
X148352380Y-65358571D01*
X148400000Y-65263333D01*
X148447619Y-65215714D01*
X148542857Y-65168095D01*
X148685714Y-65168095D01*
X148780952Y-65215714D01*
X148828571Y-65263333D01*
X148876190Y-65358571D01*
X148876190Y-65739523D01*
X149352380Y-64739523D02*
X148685714Y-64739523D01*
X148876190Y-64739523D02*
X148780952Y-64691904D01*
X148733333Y-64644285D01*
X148685714Y-64549047D01*
X148685714Y-64453809D01*
X149352380Y-64120476D02*
X148685714Y-64120476D01*
X148352380Y-64120476D02*
X148400000Y-64168095D01*
X148447619Y-64120476D01*
X148400000Y-64072857D01*
X148352380Y-64120476D01*
X148447619Y-64120476D01*
X152685714Y-79382380D02*
X152114285Y-79382380D01*
X152400000Y-79382380D02*
X152400000Y-78382380D01*
X152304761Y-78525238D01*
X152209523Y-78620476D01*
X152114285Y-78668095D01*
%TO.C,C1*%
X106937142Y-85216666D02*
X106984761Y-85264285D01*
X107032380Y-85407142D01*
X107032380Y-85502380D01*
X106984761Y-85645238D01*
X106889523Y-85740476D01*
X106794285Y-85788095D01*
X106603809Y-85835714D01*
X106460952Y-85835714D01*
X106270476Y-85788095D01*
X106175238Y-85740476D01*
X106080000Y-85645238D01*
X106032380Y-85502380D01*
X106032380Y-85407142D01*
X106080000Y-85264285D01*
X106127619Y-85216666D01*
X107032380Y-84264285D02*
X107032380Y-84835714D01*
X107032380Y-84550000D02*
X106032380Y-84550000D01*
X106175238Y-84645238D01*
X106270476Y-84740476D01*
X106318095Y-84835714D01*
%TO.C,C2*%
X122177142Y-85216666D02*
X122224761Y-85264285D01*
X122272380Y-85407142D01*
X122272380Y-85502380D01*
X122224761Y-85645238D01*
X122129523Y-85740476D01*
X122034285Y-85788095D01*
X121843809Y-85835714D01*
X121700952Y-85835714D01*
X121510476Y-85788095D01*
X121415238Y-85740476D01*
X121320000Y-85645238D01*
X121272380Y-85502380D01*
X121272380Y-85407142D01*
X121320000Y-85264285D01*
X121367619Y-85216666D01*
X121367619Y-84835714D02*
X121320000Y-84788095D01*
X121272380Y-84692857D01*
X121272380Y-84454761D01*
X121320000Y-84359523D01*
X121367619Y-84311904D01*
X121462857Y-84264285D01*
X121558095Y-84264285D01*
X121700952Y-84311904D01*
X122272380Y-84883333D01*
X122272380Y-84264285D01*
%TO.C,C3*%
X76033333Y-126497142D02*
X75985714Y-126544761D01*
X75842857Y-126592380D01*
X75747619Y-126592380D01*
X75604761Y-126544761D01*
X75509523Y-126449523D01*
X75461904Y-126354285D01*
X75414285Y-126163809D01*
X75414285Y-126020952D01*
X75461904Y-125830476D01*
X75509523Y-125735238D01*
X75604761Y-125640000D01*
X75747619Y-125592380D01*
X75842857Y-125592380D01*
X75985714Y-125640000D01*
X76033333Y-125687619D01*
X76366666Y-125592380D02*
X76985714Y-125592380D01*
X76652380Y-125973333D01*
X76795238Y-125973333D01*
X76890476Y-126020952D01*
X76938095Y-126068571D01*
X76985714Y-126163809D01*
X76985714Y-126401904D01*
X76938095Y-126497142D01*
X76890476Y-126544761D01*
X76795238Y-126592380D01*
X76509523Y-126592380D01*
X76414285Y-126544761D01*
X76366666Y-126497142D01*
%TO.C,C4*%
X106745833Y-117607142D02*
X106698214Y-117654761D01*
X106555357Y-117702380D01*
X106460119Y-117702380D01*
X106317261Y-117654761D01*
X106222023Y-117559523D01*
X106174404Y-117464285D01*
X106126785Y-117273809D01*
X106126785Y-117130952D01*
X106174404Y-116940476D01*
X106222023Y-116845238D01*
X106317261Y-116750000D01*
X106460119Y-116702380D01*
X106555357Y-116702380D01*
X106698214Y-116750000D01*
X106745833Y-116797619D01*
X107602976Y-117035714D02*
X107602976Y-117702380D01*
X107364880Y-116654761D02*
X107126785Y-117369047D01*
X107745833Y-117369047D01*
%TO.C,C5*%
X123228333Y-63167142D02*
X123180714Y-63214761D01*
X123037857Y-63262380D01*
X122942619Y-63262380D01*
X122799761Y-63214761D01*
X122704523Y-63119523D01*
X122656904Y-63024285D01*
X122609285Y-62833809D01*
X122609285Y-62690952D01*
X122656904Y-62500476D01*
X122704523Y-62405238D01*
X122799761Y-62310000D01*
X122942619Y-62262380D01*
X123037857Y-62262380D01*
X123180714Y-62310000D01*
X123228333Y-62357619D01*
X124133095Y-62262380D02*
X123656904Y-62262380D01*
X123609285Y-62738571D01*
X123656904Y-62690952D01*
X123752142Y-62643333D01*
X123990238Y-62643333D01*
X124085476Y-62690952D01*
X124133095Y-62738571D01*
X124180714Y-62833809D01*
X124180714Y-63071904D01*
X124133095Y-63167142D01*
X124085476Y-63214761D01*
X123990238Y-63262380D01*
X123752142Y-63262380D01*
X123656904Y-63214761D01*
X123609285Y-63167142D01*
%TO.C,C6*%
X102367142Y-128436666D02*
X102414761Y-128484285D01*
X102462380Y-128627142D01*
X102462380Y-128722380D01*
X102414761Y-128865238D01*
X102319523Y-128960476D01*
X102224285Y-129008095D01*
X102033809Y-129055714D01*
X101890952Y-129055714D01*
X101700476Y-129008095D01*
X101605238Y-128960476D01*
X101510000Y-128865238D01*
X101462380Y-128722380D01*
X101462380Y-128627142D01*
X101510000Y-128484285D01*
X101557619Y-128436666D01*
X101462380Y-127579523D02*
X101462380Y-127770000D01*
X101510000Y-127865238D01*
X101557619Y-127912857D01*
X101700476Y-128008095D01*
X101890952Y-128055714D01*
X102271904Y-128055714D01*
X102367142Y-128008095D01*
X102414761Y-127960476D01*
X102462380Y-127865238D01*
X102462380Y-127674761D01*
X102414761Y-127579523D01*
X102367142Y-127531904D01*
X102271904Y-127484285D01*
X102033809Y-127484285D01*
X101938571Y-127531904D01*
X101890952Y-127579523D01*
X101843333Y-127674761D01*
X101843333Y-127865238D01*
X101890952Y-127960476D01*
X101938571Y-128008095D01*
X102033809Y-128055714D01*
%TO.C,C7*%
X199655833Y-61097142D02*
X199608214Y-61144761D01*
X199465357Y-61192380D01*
X199370119Y-61192380D01*
X199227261Y-61144761D01*
X199132023Y-61049523D01*
X199084404Y-60954285D01*
X199036785Y-60763809D01*
X199036785Y-60620952D01*
X199084404Y-60430476D01*
X199132023Y-60335238D01*
X199227261Y-60240000D01*
X199370119Y-60192380D01*
X199465357Y-60192380D01*
X199608214Y-60240000D01*
X199655833Y-60287619D01*
X199989166Y-60192380D02*
X200655833Y-60192380D01*
X200227261Y-61192380D01*
%TO.C,C8*%
X210317142Y-85256666D02*
X210364761Y-85304285D01*
X210412380Y-85447142D01*
X210412380Y-85542380D01*
X210364761Y-85685238D01*
X210269523Y-85780476D01*
X210174285Y-85828095D01*
X209983809Y-85875714D01*
X209840952Y-85875714D01*
X209650476Y-85828095D01*
X209555238Y-85780476D01*
X209460000Y-85685238D01*
X209412380Y-85542380D01*
X209412380Y-85447142D01*
X209460000Y-85304285D01*
X209507619Y-85256666D01*
X209840952Y-84685238D02*
X209793333Y-84780476D01*
X209745714Y-84828095D01*
X209650476Y-84875714D01*
X209602857Y-84875714D01*
X209507619Y-84828095D01*
X209460000Y-84780476D01*
X209412380Y-84685238D01*
X209412380Y-84494761D01*
X209460000Y-84399523D01*
X209507619Y-84351904D01*
X209602857Y-84304285D01*
X209650476Y-84304285D01*
X209745714Y-84351904D01*
X209793333Y-84399523D01*
X209840952Y-84494761D01*
X209840952Y-84685238D01*
X209888571Y-84780476D01*
X209936190Y-84828095D01*
X210031428Y-84875714D01*
X210221904Y-84875714D01*
X210317142Y-84828095D01*
X210364761Y-84780476D01*
X210412380Y-84685238D01*
X210412380Y-84494761D01*
X210364761Y-84399523D01*
X210317142Y-84351904D01*
X210221904Y-84304285D01*
X210031428Y-84304285D01*
X209936190Y-84351904D01*
X209888571Y-84399523D01*
X209840952Y-84494761D01*
%TO.C,C9*%
X218967142Y-61606666D02*
X219014761Y-61654285D01*
X219062380Y-61797142D01*
X219062380Y-61892380D01*
X219014761Y-62035238D01*
X218919523Y-62130476D01*
X218824285Y-62178095D01*
X218633809Y-62225714D01*
X218490952Y-62225714D01*
X218300476Y-62178095D01*
X218205238Y-62130476D01*
X218110000Y-62035238D01*
X218062380Y-61892380D01*
X218062380Y-61797142D01*
X218110000Y-61654285D01*
X218157619Y-61606666D01*
X219062380Y-61130476D02*
X219062380Y-60940000D01*
X219014761Y-60844761D01*
X218967142Y-60797142D01*
X218824285Y-60701904D01*
X218633809Y-60654285D01*
X218252857Y-60654285D01*
X218157619Y-60701904D01*
X218110000Y-60749523D01*
X218062380Y-60844761D01*
X218062380Y-61035238D01*
X218110000Y-61130476D01*
X218157619Y-61178095D01*
X218252857Y-61225714D01*
X218490952Y-61225714D01*
X218586190Y-61178095D01*
X218633809Y-61130476D01*
X218681428Y-61035238D01*
X218681428Y-60844761D01*
X218633809Y-60749523D01*
X218586190Y-60701904D01*
X218490952Y-60654285D01*
%TO.C,C10*%
X222644642Y-90117142D02*
X222597023Y-90164761D01*
X222454166Y-90212380D01*
X222358928Y-90212380D01*
X222216071Y-90164761D01*
X222120833Y-90069523D01*
X222073214Y-89974285D01*
X222025595Y-89783809D01*
X222025595Y-89640952D01*
X222073214Y-89450476D01*
X222120833Y-89355238D01*
X222216071Y-89260000D01*
X222358928Y-89212380D01*
X222454166Y-89212380D01*
X222597023Y-89260000D01*
X222644642Y-89307619D01*
X223597023Y-90212380D02*
X223025595Y-90212380D01*
X223311309Y-90212380D02*
X223311309Y-89212380D01*
X223216071Y-89355238D01*
X223120833Y-89450476D01*
X223025595Y-89498095D01*
X224216071Y-89212380D02*
X224311309Y-89212380D01*
X224406547Y-89260000D01*
X224454166Y-89307619D01*
X224501785Y-89402857D01*
X224549404Y-89593333D01*
X224549404Y-89831428D01*
X224501785Y-90021904D01*
X224454166Y-90117142D01*
X224406547Y-90164761D01*
X224311309Y-90212380D01*
X224216071Y-90212380D01*
X224120833Y-90164761D01*
X224073214Y-90117142D01*
X224025595Y-90021904D01*
X223977976Y-89831428D01*
X223977976Y-89593333D01*
X224025595Y-89402857D01*
X224073214Y-89307619D01*
X224120833Y-89260000D01*
X224216071Y-89212380D01*
%TO.C,C11*%
X236747142Y-62082857D02*
X236794761Y-62130476D01*
X236842380Y-62273333D01*
X236842380Y-62368571D01*
X236794761Y-62511428D01*
X236699523Y-62606666D01*
X236604285Y-62654285D01*
X236413809Y-62701904D01*
X236270952Y-62701904D01*
X236080476Y-62654285D01*
X235985238Y-62606666D01*
X235890000Y-62511428D01*
X235842380Y-62368571D01*
X235842380Y-62273333D01*
X235890000Y-62130476D01*
X235937619Y-62082857D01*
X236842380Y-61130476D02*
X236842380Y-61701904D01*
X236842380Y-61416190D02*
X235842380Y-61416190D01*
X235985238Y-61511428D01*
X236080476Y-61606666D01*
X236128095Y-61701904D01*
X236842380Y-60178095D02*
X236842380Y-60749523D01*
X236842380Y-60463809D02*
X235842380Y-60463809D01*
X235985238Y-60559047D01*
X236080476Y-60654285D01*
X236128095Y-60749523D01*
%TO.C,C12*%
X222644642Y-99827142D02*
X222597023Y-99874761D01*
X222454166Y-99922380D01*
X222358928Y-99922380D01*
X222216071Y-99874761D01*
X222120833Y-99779523D01*
X222073214Y-99684285D01*
X222025595Y-99493809D01*
X222025595Y-99350952D01*
X222073214Y-99160476D01*
X222120833Y-99065238D01*
X222216071Y-98970000D01*
X222358928Y-98922380D01*
X222454166Y-98922380D01*
X222597023Y-98970000D01*
X222644642Y-99017619D01*
X223597023Y-99922380D02*
X223025595Y-99922380D01*
X223311309Y-99922380D02*
X223311309Y-98922380D01*
X223216071Y-99065238D01*
X223120833Y-99160476D01*
X223025595Y-99208095D01*
X223977976Y-99017619D02*
X224025595Y-98970000D01*
X224120833Y-98922380D01*
X224358928Y-98922380D01*
X224454166Y-98970000D01*
X224501785Y-99017619D01*
X224549404Y-99112857D01*
X224549404Y-99208095D01*
X224501785Y-99350952D01*
X223930357Y-99922380D01*
X224549404Y-99922380D01*
%TO.C,C13*%
X124297142Y-101787142D02*
X124249523Y-101834761D01*
X124106666Y-101882380D01*
X124011428Y-101882380D01*
X123868571Y-101834761D01*
X123773333Y-101739523D01*
X123725714Y-101644285D01*
X123678095Y-101453809D01*
X123678095Y-101310952D01*
X123725714Y-101120476D01*
X123773333Y-101025238D01*
X123868571Y-100930000D01*
X124011428Y-100882380D01*
X124106666Y-100882380D01*
X124249523Y-100930000D01*
X124297142Y-100977619D01*
X125249523Y-101882380D02*
X124678095Y-101882380D01*
X124963809Y-101882380D02*
X124963809Y-100882380D01*
X124868571Y-101025238D01*
X124773333Y-101120476D01*
X124678095Y-101168095D01*
X125582857Y-100882380D02*
X126201904Y-100882380D01*
X125868571Y-101263333D01*
X126011428Y-101263333D01*
X126106666Y-101310952D01*
X126154285Y-101358571D01*
X126201904Y-101453809D01*
X126201904Y-101691904D01*
X126154285Y-101787142D01*
X126106666Y-101834761D01*
X126011428Y-101882380D01*
X125725714Y-101882380D01*
X125630476Y-101834761D01*
X125582857Y-101787142D01*
%TO.C,C14*%
X185987142Y-105827142D02*
X185939523Y-105874761D01*
X185796666Y-105922380D01*
X185701428Y-105922380D01*
X185558571Y-105874761D01*
X185463333Y-105779523D01*
X185415714Y-105684285D01*
X185368095Y-105493809D01*
X185368095Y-105350952D01*
X185415714Y-105160476D01*
X185463333Y-105065238D01*
X185558571Y-104970000D01*
X185701428Y-104922380D01*
X185796666Y-104922380D01*
X185939523Y-104970000D01*
X185987142Y-105017619D01*
X186939523Y-105922380D02*
X186368095Y-105922380D01*
X186653809Y-105922380D02*
X186653809Y-104922380D01*
X186558571Y-105065238D01*
X186463333Y-105160476D01*
X186368095Y-105208095D01*
X187796666Y-105255714D02*
X187796666Y-105922380D01*
X187558571Y-104874761D02*
X187320476Y-105589047D01*
X187939523Y-105589047D01*
%TO.C,D1*%
X91971904Y-75272380D02*
X91971904Y-74272380D01*
X92210000Y-74272380D01*
X92352857Y-74320000D01*
X92448095Y-74415238D01*
X92495714Y-74510476D01*
X92543333Y-74700952D01*
X92543333Y-74843809D01*
X92495714Y-75034285D01*
X92448095Y-75129523D01*
X92352857Y-75224761D01*
X92210000Y-75272380D01*
X91971904Y-75272380D01*
X93495714Y-75272380D02*
X92924285Y-75272380D01*
X93210000Y-75272380D02*
X93210000Y-74272380D01*
X93114761Y-74415238D01*
X93019523Y-74510476D01*
X92924285Y-74558095D01*
%TO.C,D2*%
X91971904Y-103832380D02*
X91971904Y-102832380D01*
X92210000Y-102832380D01*
X92352857Y-102880000D01*
X92448095Y-102975238D01*
X92495714Y-103070476D01*
X92543333Y-103260952D01*
X92543333Y-103403809D01*
X92495714Y-103594285D01*
X92448095Y-103689523D01*
X92352857Y-103784761D01*
X92210000Y-103832380D01*
X91971904Y-103832380D01*
X92924285Y-102927619D02*
X92971904Y-102880000D01*
X93067142Y-102832380D01*
X93305238Y-102832380D01*
X93400476Y-102880000D01*
X93448095Y-102927619D01*
X93495714Y-103022857D01*
X93495714Y-103118095D01*
X93448095Y-103260952D01*
X92876666Y-103832380D01*
X93495714Y-103832380D01*
%TO.C,D3*%
X135151904Y-63442380D02*
X135151904Y-62442380D01*
X135390000Y-62442380D01*
X135532857Y-62490000D01*
X135628095Y-62585238D01*
X135675714Y-62680476D01*
X135723333Y-62870952D01*
X135723333Y-63013809D01*
X135675714Y-63204285D01*
X135628095Y-63299523D01*
X135532857Y-63394761D01*
X135390000Y-63442380D01*
X135151904Y-63442380D01*
X136056666Y-62442380D02*
X136675714Y-62442380D01*
X136342380Y-62823333D01*
X136485238Y-62823333D01*
X136580476Y-62870952D01*
X136628095Y-62918571D01*
X136675714Y-63013809D01*
X136675714Y-63251904D01*
X136628095Y-63347142D01*
X136580476Y-63394761D01*
X136485238Y-63442380D01*
X136199523Y-63442380D01*
X136104285Y-63394761D01*
X136056666Y-63347142D01*
%TO.C,D4*%
X195956904Y-67002380D02*
X195956904Y-66002380D01*
X196195000Y-66002380D01*
X196337857Y-66050000D01*
X196433095Y-66145238D01*
X196480714Y-66240476D01*
X196528333Y-66430952D01*
X196528333Y-66573809D01*
X196480714Y-66764285D01*
X196433095Y-66859523D01*
X196337857Y-66954761D01*
X196195000Y-67002380D01*
X195956904Y-67002380D01*
X197385476Y-66335714D02*
X197385476Y-67002380D01*
X197147380Y-65954761D02*
X196909285Y-66669047D01*
X197528333Y-66669047D01*
%TO.C,F1*%
D14*
X71836666Y-72299285D02*
X71413333Y-72299285D01*
X71413333Y-72964523D02*
X71413333Y-71694523D01*
X72018095Y-71694523D01*
X73167142Y-72964523D02*
X72441428Y-72964523D01*
X72804285Y-72964523D02*
X72804285Y-71694523D01*
X72683333Y-71875952D01*
X72562380Y-71996904D01*
X72441428Y-72057380D01*
%TO.C,IC1*%
X85120238Y-131064523D02*
X85120238Y-129794523D01*
X86450714Y-130943571D02*
X86390238Y-131004047D01*
X86208809Y-131064523D01*
X86087857Y-131064523D01*
X85906428Y-131004047D01*
X85785476Y-130883095D01*
X85725000Y-130762142D01*
X85664523Y-130520238D01*
X85664523Y-130338809D01*
X85725000Y-130096904D01*
X85785476Y-129975952D01*
X85906428Y-129855000D01*
X86087857Y-129794523D01*
X86208809Y-129794523D01*
X86390238Y-129855000D01*
X86450714Y-129915476D01*
X87660238Y-131064523D02*
X86934523Y-131064523D01*
X87297380Y-131064523D02*
X87297380Y-129794523D01*
X87176428Y-129975952D01*
X87055476Y-130096904D01*
X86934523Y-130157380D01*
%TO.C,J1*%
D15*
X65676666Y-41792380D02*
X65676666Y-42506666D01*
X65629047Y-42649523D01*
X65533809Y-42744761D01*
X65390952Y-42792380D01*
X65295714Y-42792380D01*
X66676666Y-42792380D02*
X66105238Y-42792380D01*
X66390952Y-42792380D02*
X66390952Y-41792380D01*
X66295714Y-41935238D01*
X66200476Y-42030476D01*
X66105238Y-42078095D01*
%TO.C,J2*%
X233346666Y-40092380D02*
X233346666Y-40806666D01*
X233299047Y-40949523D01*
X233203809Y-41044761D01*
X233060952Y-41092380D01*
X232965714Y-41092380D01*
X233775238Y-40187619D02*
X233822857Y-40140000D01*
X233918095Y-40092380D01*
X234156190Y-40092380D01*
X234251428Y-40140000D01*
X234299047Y-40187619D01*
X234346666Y-40282857D01*
X234346666Y-40378095D01*
X234299047Y-40520952D01*
X233727619Y-41092380D01*
X234346666Y-41092380D01*
%TO.C,L1*%
D14*
X106101463Y-72898643D02*
X105496701Y-72898643D01*
X105496701Y-71628643D01*
X107190034Y-72898643D02*
X106464320Y-72898643D01*
X106827177Y-72898643D02*
X106827177Y-71628643D01*
X106706225Y-71810072D01*
X106585272Y-71931024D01*
X106464320Y-71991500D01*
%TO.C,L2*%
D15*
X221963333Y-58592380D02*
X221487142Y-58592380D01*
X221487142Y-57592380D01*
X222249047Y-57687619D02*
X222296666Y-57640000D01*
X222391904Y-57592380D01*
X222630000Y-57592380D01*
X222725238Y-57640000D01*
X222772857Y-57687619D01*
X222820476Y-57782857D01*
X222820476Y-57878095D01*
X222772857Y-58020952D01*
X222201428Y-58592380D01*
X222820476Y-58592380D01*
%TO.C,Q1*%
X129444761Y-119237619D02*
X129349523Y-119190000D01*
X129254285Y-119094761D01*
X129111428Y-118951904D01*
X129016190Y-118904285D01*
X128920952Y-118904285D01*
X128968571Y-119142380D02*
X128873333Y-119094761D01*
X128778095Y-118999523D01*
X128730476Y-118809047D01*
X128730476Y-118475714D01*
X128778095Y-118285238D01*
X128873333Y-118190000D01*
X128968571Y-118142380D01*
X129159047Y-118142380D01*
X129254285Y-118190000D01*
X129349523Y-118285238D01*
X129397142Y-118475714D01*
X129397142Y-118809047D01*
X129349523Y-118999523D01*
X129254285Y-119094761D01*
X129159047Y-119142380D01*
X128968571Y-119142380D01*
X130349523Y-119142380D02*
X129778095Y-119142380D01*
X130063809Y-119142380D02*
X130063809Y-118142380D01*
X129968571Y-118285238D01*
X129873333Y-118380476D01*
X129778095Y-118428095D01*
%TO.C,R1*%
X106513333Y-65602380D02*
X106180000Y-65126190D01*
X105941904Y-65602380D02*
X105941904Y-64602380D01*
X106322857Y-64602380D01*
X106418095Y-64650000D01*
X106465714Y-64697619D01*
X106513333Y-64792857D01*
X106513333Y-64935714D01*
X106465714Y-65030952D01*
X106418095Y-65078571D01*
X106322857Y-65126190D01*
X105941904Y-65126190D01*
X107465714Y-65602380D02*
X106894285Y-65602380D01*
X107180000Y-65602380D02*
X107180000Y-64602380D01*
X107084761Y-64745238D01*
X106989523Y-64840476D01*
X106894285Y-64888095D01*
%TO.C,R2*%
X75762380Y-105576666D02*
X75286190Y-105910000D01*
X75762380Y-106148095D02*
X74762380Y-106148095D01*
X74762380Y-105767142D01*
X74810000Y-105671904D01*
X74857619Y-105624285D01*
X74952857Y-105576666D01*
X75095714Y-105576666D01*
X75190952Y-105624285D01*
X75238571Y-105671904D01*
X75286190Y-105767142D01*
X75286190Y-106148095D01*
X74857619Y-105195714D02*
X74810000Y-105148095D01*
X74762380Y-105052857D01*
X74762380Y-104814761D01*
X74810000Y-104719523D01*
X74857619Y-104671904D01*
X74952857Y-104624285D01*
X75048095Y-104624285D01*
X75190952Y-104671904D01*
X75762380Y-105243333D01*
X75762380Y-104624285D01*
%TO.C,R3*%
X71843333Y-112212380D02*
X71510000Y-111736190D01*
X71271904Y-112212380D02*
X71271904Y-111212380D01*
X71652857Y-111212380D01*
X71748095Y-111260000D01*
X71795714Y-111307619D01*
X71843333Y-111402857D01*
X71843333Y-111545714D01*
X71795714Y-111640952D01*
X71748095Y-111688571D01*
X71652857Y-111736190D01*
X71271904Y-111736190D01*
X72176666Y-111212380D02*
X72795714Y-111212380D01*
X72462380Y-111593333D01*
X72605238Y-111593333D01*
X72700476Y-111640952D01*
X72748095Y-111688571D01*
X72795714Y-111783809D01*
X72795714Y-112021904D01*
X72748095Y-112117142D01*
X72700476Y-112164761D01*
X72605238Y-112212380D01*
X72319523Y-112212380D01*
X72224285Y-112164761D01*
X72176666Y-112117142D01*
%TO.C,R4*%
X108053333Y-103702380D02*
X107720000Y-103226190D01*
X107481904Y-103702380D02*
X107481904Y-102702380D01*
X107862857Y-102702380D01*
X107958095Y-102750000D01*
X108005714Y-102797619D01*
X108053333Y-102892857D01*
X108053333Y-103035714D01*
X108005714Y-103130952D01*
X107958095Y-103178571D01*
X107862857Y-103226190D01*
X107481904Y-103226190D01*
X108910476Y-103035714D02*
X108910476Y-103702380D01*
X108672380Y-102654761D02*
X108434285Y-103369047D01*
X109053333Y-103369047D01*
%TO.C,R5*%
X106783333Y-109292380D02*
X106450000Y-108816190D01*
X106211904Y-109292380D02*
X106211904Y-108292380D01*
X106592857Y-108292380D01*
X106688095Y-108340000D01*
X106735714Y-108387619D01*
X106783333Y-108482857D01*
X106783333Y-108625714D01*
X106735714Y-108720952D01*
X106688095Y-108768571D01*
X106592857Y-108816190D01*
X106211904Y-108816190D01*
X107688095Y-108292380D02*
X107211904Y-108292380D01*
X107164285Y-108768571D01*
X107211904Y-108720952D01*
X107307142Y-108673333D01*
X107545238Y-108673333D01*
X107640476Y-108720952D01*
X107688095Y-108768571D01*
X107735714Y-108863809D01*
X107735714Y-109101904D01*
X107688095Y-109197142D01*
X107640476Y-109244761D01*
X107545238Y-109292380D01*
X107307142Y-109292380D01*
X107211904Y-109244761D01*
X107164285Y-109197142D01*
%TO.C,R6*%
X129272380Y-83986666D02*
X128796190Y-84320000D01*
X129272380Y-84558095D02*
X128272380Y-84558095D01*
X128272380Y-84177142D01*
X128320000Y-84081904D01*
X128367619Y-84034285D01*
X128462857Y-83986666D01*
X128605714Y-83986666D01*
X128700952Y-84034285D01*
X128748571Y-84081904D01*
X128796190Y-84177142D01*
X128796190Y-84558095D01*
X128272380Y-83129523D02*
X128272380Y-83320000D01*
X128320000Y-83415238D01*
X128367619Y-83462857D01*
X128510476Y-83558095D01*
X128700952Y-83605714D01*
X129081904Y-83605714D01*
X129177142Y-83558095D01*
X129224761Y-83510476D01*
X129272380Y-83415238D01*
X129272380Y-83224761D01*
X129224761Y-83129523D01*
X129177142Y-83081904D01*
X129081904Y-83034285D01*
X128843809Y-83034285D01*
X128748571Y-83081904D01*
X128700952Y-83129523D01*
X128653333Y-83224761D01*
X128653333Y-83415238D01*
X128700952Y-83510476D01*
X128748571Y-83558095D01*
X128843809Y-83605714D01*
%TO.C,R7*%
X129272380Y-90336666D02*
X128796190Y-90670000D01*
X129272380Y-90908095D02*
X128272380Y-90908095D01*
X128272380Y-90527142D01*
X128320000Y-90431904D01*
X128367619Y-90384285D01*
X128462857Y-90336666D01*
X128605714Y-90336666D01*
X128700952Y-90384285D01*
X128748571Y-90431904D01*
X128796190Y-90527142D01*
X128796190Y-90908095D01*
X128272380Y-90003333D02*
X128272380Y-89336666D01*
X129272380Y-89765238D01*
%TO.C,R8*%
X129272380Y-96686666D02*
X128796190Y-97020000D01*
X129272380Y-97258095D02*
X128272380Y-97258095D01*
X128272380Y-96877142D01*
X128320000Y-96781904D01*
X128367619Y-96734285D01*
X128462857Y-96686666D01*
X128605714Y-96686666D01*
X128700952Y-96734285D01*
X128748571Y-96781904D01*
X128796190Y-96877142D01*
X128796190Y-97258095D01*
X128700952Y-96115238D02*
X128653333Y-96210476D01*
X128605714Y-96258095D01*
X128510476Y-96305714D01*
X128462857Y-96305714D01*
X128367619Y-96258095D01*
X128320000Y-96210476D01*
X128272380Y-96115238D01*
X128272380Y-95924761D01*
X128320000Y-95829523D01*
X128367619Y-95781904D01*
X128462857Y-95734285D01*
X128510476Y-95734285D01*
X128605714Y-95781904D01*
X128653333Y-95829523D01*
X128700952Y-95924761D01*
X128700952Y-96115238D01*
X128748571Y-96210476D01*
X128796190Y-96258095D01*
X128891428Y-96305714D01*
X129081904Y-96305714D01*
X129177142Y-96258095D01*
X129224761Y-96210476D01*
X129272380Y-96115238D01*
X129272380Y-95924761D01*
X129224761Y-95829523D01*
X129177142Y-95781904D01*
X129081904Y-95734285D01*
X128891428Y-95734285D01*
X128796190Y-95781904D01*
X128748571Y-95829523D01*
X128700952Y-95924761D01*
%TO.C,R9*%
X122753333Y-69412380D02*
X122420000Y-68936190D01*
X122181904Y-69412380D02*
X122181904Y-68412380D01*
X122562857Y-68412380D01*
X122658095Y-68460000D01*
X122705714Y-68507619D01*
X122753333Y-68602857D01*
X122753333Y-68745714D01*
X122705714Y-68840952D01*
X122658095Y-68888571D01*
X122562857Y-68936190D01*
X122181904Y-68936190D01*
X123229523Y-69412380D02*
X123420000Y-69412380D01*
X123515238Y-69364761D01*
X123562857Y-69317142D01*
X123658095Y-69174285D01*
X123705714Y-68983809D01*
X123705714Y-68602857D01*
X123658095Y-68507619D01*
X123610476Y-68460000D01*
X123515238Y-68412380D01*
X123324761Y-68412380D01*
X123229523Y-68460000D01*
X123181904Y-68507619D01*
X123134285Y-68602857D01*
X123134285Y-68840952D01*
X123181904Y-68936190D01*
X123229523Y-68983809D01*
X123324761Y-69031428D01*
X123515238Y-69031428D01*
X123610476Y-68983809D01*
X123658095Y-68936190D01*
X123705714Y-68840952D01*
%TO.C,R10*%
X128897142Y-66872380D02*
X128563809Y-66396190D01*
X128325714Y-66872380D02*
X128325714Y-65872380D01*
X128706666Y-65872380D01*
X128801904Y-65920000D01*
X128849523Y-65967619D01*
X128897142Y-66062857D01*
X128897142Y-66205714D01*
X128849523Y-66300952D01*
X128801904Y-66348571D01*
X128706666Y-66396190D01*
X128325714Y-66396190D01*
X129849523Y-66872380D02*
X129278095Y-66872380D01*
X129563809Y-66872380D02*
X129563809Y-65872380D01*
X129468571Y-66015238D01*
X129373333Y-66110476D01*
X129278095Y-66158095D01*
X130468571Y-65872380D02*
X130563809Y-65872380D01*
X130659047Y-65920000D01*
X130706666Y-65967619D01*
X130754285Y-66062857D01*
X130801904Y-66253333D01*
X130801904Y-66491428D01*
X130754285Y-66681904D01*
X130706666Y-66777142D01*
X130659047Y-66824761D01*
X130563809Y-66872380D01*
X130468571Y-66872380D01*
X130373333Y-66824761D01*
X130325714Y-66777142D01*
X130278095Y-66681904D01*
X130230476Y-66491428D01*
X130230476Y-66253333D01*
X130278095Y-66062857D01*
X130325714Y-65967619D01*
X130373333Y-65920000D01*
X130468571Y-65872380D01*
%TO.C,R11*%
X120007142Y-122752380D02*
X119673809Y-122276190D01*
X119435714Y-122752380D02*
X119435714Y-121752380D01*
X119816666Y-121752380D01*
X119911904Y-121800000D01*
X119959523Y-121847619D01*
X120007142Y-121942857D01*
X120007142Y-122085714D01*
X119959523Y-122180952D01*
X119911904Y-122228571D01*
X119816666Y-122276190D01*
X119435714Y-122276190D01*
X120959523Y-122752380D02*
X120388095Y-122752380D01*
X120673809Y-122752380D02*
X120673809Y-121752380D01*
X120578571Y-121895238D01*
X120483333Y-121990476D01*
X120388095Y-122038095D01*
X121911904Y-122752380D02*
X121340476Y-122752380D01*
X121626190Y-122752380D02*
X121626190Y-121752380D01*
X121530952Y-121895238D01*
X121435714Y-121990476D01*
X121340476Y-122038095D01*
%TO.C,R12*%
X103497142Y-126562380D02*
X103163809Y-126086190D01*
X102925714Y-126562380D02*
X102925714Y-125562380D01*
X103306666Y-125562380D01*
X103401904Y-125610000D01*
X103449523Y-125657619D01*
X103497142Y-125752857D01*
X103497142Y-125895714D01*
X103449523Y-125990952D01*
X103401904Y-126038571D01*
X103306666Y-126086190D01*
X102925714Y-126086190D01*
X104449523Y-126562380D02*
X103878095Y-126562380D01*
X104163809Y-126562380D02*
X104163809Y-125562380D01*
X104068571Y-125705238D01*
X103973333Y-125800476D01*
X103878095Y-125848095D01*
X104830476Y-125657619D02*
X104878095Y-125610000D01*
X104973333Y-125562380D01*
X105211428Y-125562380D01*
X105306666Y-125610000D01*
X105354285Y-125657619D01*
X105401904Y-125752857D01*
X105401904Y-125848095D01*
X105354285Y-125990952D01*
X104782857Y-126562380D01*
X105401904Y-126562380D01*
%TO.C,R13*%
X106752380Y-128912857D02*
X106276190Y-129246190D01*
X106752380Y-129484285D02*
X105752380Y-129484285D01*
X105752380Y-129103333D01*
X105800000Y-129008095D01*
X105847619Y-128960476D01*
X105942857Y-128912857D01*
X106085714Y-128912857D01*
X106180952Y-128960476D01*
X106228571Y-129008095D01*
X106276190Y-129103333D01*
X106276190Y-129484285D01*
X106752380Y-127960476D02*
X106752380Y-128531904D01*
X106752380Y-128246190D02*
X105752380Y-128246190D01*
X105895238Y-128341428D01*
X105990476Y-128436666D01*
X106038095Y-128531904D01*
X105752380Y-127627142D02*
X105752380Y-127008095D01*
X106133333Y-127341428D01*
X106133333Y-127198571D01*
X106180952Y-127103333D01*
X106228571Y-127055714D01*
X106323809Y-127008095D01*
X106561904Y-127008095D01*
X106657142Y-127055714D01*
X106704761Y-127103333D01*
X106752380Y-127198571D01*
X106752380Y-127484285D01*
X106704761Y-127579523D01*
X106657142Y-127627142D01*
%TO.C,R14*%
X193397142Y-61792380D02*
X193063809Y-61316190D01*
X192825714Y-61792380D02*
X192825714Y-60792380D01*
X193206666Y-60792380D01*
X193301904Y-60840000D01*
X193349523Y-60887619D01*
X193397142Y-60982857D01*
X193397142Y-61125714D01*
X193349523Y-61220952D01*
X193301904Y-61268571D01*
X193206666Y-61316190D01*
X192825714Y-61316190D01*
X194349523Y-61792380D02*
X193778095Y-61792380D01*
X194063809Y-61792380D02*
X194063809Y-60792380D01*
X193968571Y-60935238D01*
X193873333Y-61030476D01*
X193778095Y-61078095D01*
X195206666Y-61125714D02*
X195206666Y-61792380D01*
X194968571Y-60744761D02*
X194730476Y-61459047D01*
X195349523Y-61459047D01*
%TO.C,R15*%
X212162380Y-85732857D02*
X211686190Y-86066190D01*
X212162380Y-86304285D02*
X211162380Y-86304285D01*
X211162380Y-85923333D01*
X211210000Y-85828095D01*
X211257619Y-85780476D01*
X211352857Y-85732857D01*
X211495714Y-85732857D01*
X211590952Y-85780476D01*
X211638571Y-85828095D01*
X211686190Y-85923333D01*
X211686190Y-86304285D01*
X212162380Y-84780476D02*
X212162380Y-85351904D01*
X212162380Y-85066190D02*
X211162380Y-85066190D01*
X211305238Y-85161428D01*
X211400476Y-85256666D01*
X211448095Y-85351904D01*
X211162380Y-83875714D02*
X211162380Y-84351904D01*
X211638571Y-84399523D01*
X211590952Y-84351904D01*
X211543333Y-84256666D01*
X211543333Y-84018571D01*
X211590952Y-83923333D01*
X211638571Y-83875714D01*
X211733809Y-83828095D01*
X211971904Y-83828095D01*
X212067142Y-83875714D01*
X212114761Y-83923333D01*
X212162380Y-84018571D01*
X212162380Y-84256666D01*
X212114761Y-84351904D01*
X212067142Y-84399523D01*
%TO.C,R16*%
X221052380Y-79112857D02*
X220576190Y-79446190D01*
X221052380Y-79684285D02*
X220052380Y-79684285D01*
X220052380Y-79303333D01*
X220100000Y-79208095D01*
X220147619Y-79160476D01*
X220242857Y-79112857D01*
X220385714Y-79112857D01*
X220480952Y-79160476D01*
X220528571Y-79208095D01*
X220576190Y-79303333D01*
X220576190Y-79684285D01*
X221052380Y-78160476D02*
X221052380Y-78731904D01*
X221052380Y-78446190D02*
X220052380Y-78446190D01*
X220195238Y-78541428D01*
X220290476Y-78636666D01*
X220338095Y-78731904D01*
X220052380Y-77303333D02*
X220052380Y-77493809D01*
X220100000Y-77589047D01*
X220147619Y-77636666D01*
X220290476Y-77731904D01*
X220480952Y-77779523D01*
X220861904Y-77779523D01*
X220957142Y-77731904D01*
X221004761Y-77684285D01*
X221052380Y-77589047D01*
X221052380Y-77398571D01*
X221004761Y-77303333D01*
X220957142Y-77255714D01*
X220861904Y-77208095D01*
X220623809Y-77208095D01*
X220528571Y-77255714D01*
X220480952Y-77303333D01*
X220433333Y-77398571D01*
X220433333Y-77589047D01*
X220480952Y-77684285D01*
X220528571Y-77731904D01*
X220623809Y-77779523D01*
%TO.C,R17*%
X229497142Y-79572380D02*
X229163809Y-79096190D01*
X228925714Y-79572380D02*
X228925714Y-78572380D01*
X229306666Y-78572380D01*
X229401904Y-78620000D01*
X229449523Y-78667619D01*
X229497142Y-78762857D01*
X229497142Y-78905714D01*
X229449523Y-79000952D01*
X229401904Y-79048571D01*
X229306666Y-79096190D01*
X228925714Y-79096190D01*
X230449523Y-79572380D02*
X229878095Y-79572380D01*
X230163809Y-79572380D02*
X230163809Y-78572380D01*
X230068571Y-78715238D01*
X229973333Y-78810476D01*
X229878095Y-78858095D01*
X230782857Y-78572380D02*
X231449523Y-78572380D01*
X231020952Y-79572380D01*
%TO.C,R18*%
X228957142Y-90242380D02*
X228623809Y-89766190D01*
X228385714Y-90242380D02*
X228385714Y-89242380D01*
X228766666Y-89242380D01*
X228861904Y-89290000D01*
X228909523Y-89337619D01*
X228957142Y-89432857D01*
X228957142Y-89575714D01*
X228909523Y-89670952D01*
X228861904Y-89718571D01*
X228766666Y-89766190D01*
X228385714Y-89766190D01*
X229909523Y-90242380D02*
X229338095Y-90242380D01*
X229623809Y-90242380D02*
X229623809Y-89242380D01*
X229528571Y-89385238D01*
X229433333Y-89480476D01*
X229338095Y-89528095D01*
X230480952Y-89670952D02*
X230385714Y-89623333D01*
X230338095Y-89575714D01*
X230290476Y-89480476D01*
X230290476Y-89432857D01*
X230338095Y-89337619D01*
X230385714Y-89290000D01*
X230480952Y-89242380D01*
X230671428Y-89242380D01*
X230766666Y-89290000D01*
X230814285Y-89337619D01*
X230861904Y-89432857D01*
X230861904Y-89480476D01*
X230814285Y-89575714D01*
X230766666Y-89623333D01*
X230671428Y-89670952D01*
X230480952Y-89670952D01*
X230385714Y-89718571D01*
X230338095Y-89766190D01*
X230290476Y-89861428D01*
X230290476Y-90051904D01*
X230338095Y-90147142D01*
X230385714Y-90194761D01*
X230480952Y-90242380D01*
X230671428Y-90242380D01*
X230766666Y-90194761D01*
X230814285Y-90147142D01*
X230861904Y-90051904D01*
X230861904Y-89861428D01*
X230814285Y-89766190D01*
X230766666Y-89718571D01*
X230671428Y-89670952D01*
%TO.C,R19*%
X233242380Y-72032857D02*
X232766190Y-72366190D01*
X233242380Y-72604285D02*
X232242380Y-72604285D01*
X232242380Y-72223333D01*
X232290000Y-72128095D01*
X232337619Y-72080476D01*
X232432857Y-72032857D01*
X232575714Y-72032857D01*
X232670952Y-72080476D01*
X232718571Y-72128095D01*
X232766190Y-72223333D01*
X232766190Y-72604285D01*
X233242380Y-71080476D02*
X233242380Y-71651904D01*
X233242380Y-71366190D02*
X232242380Y-71366190D01*
X232385238Y-71461428D01*
X232480476Y-71556666D01*
X232528095Y-71651904D01*
X233242380Y-70604285D02*
X233242380Y-70413809D01*
X233194761Y-70318571D01*
X233147142Y-70270952D01*
X233004285Y-70175714D01*
X232813809Y-70128095D01*
X232432857Y-70128095D01*
X232337619Y-70175714D01*
X232290000Y-70223333D01*
X232242380Y-70318571D01*
X232242380Y-70509047D01*
X232290000Y-70604285D01*
X232337619Y-70651904D01*
X232432857Y-70699523D01*
X232670952Y-70699523D01*
X232766190Y-70651904D01*
X232813809Y-70604285D01*
X232861428Y-70509047D01*
X232861428Y-70318571D01*
X232813809Y-70223333D01*
X232766190Y-70175714D01*
X232670952Y-70128095D01*
%TO.C,R20*%
X229942380Y-84732857D02*
X229466190Y-85066190D01*
X229942380Y-85304285D02*
X228942380Y-85304285D01*
X228942380Y-84923333D01*
X228990000Y-84828095D01*
X229037619Y-84780476D01*
X229132857Y-84732857D01*
X229275714Y-84732857D01*
X229370952Y-84780476D01*
X229418571Y-84828095D01*
X229466190Y-84923333D01*
X229466190Y-85304285D01*
X229037619Y-84351904D02*
X228990000Y-84304285D01*
X228942380Y-84209047D01*
X228942380Y-83970952D01*
X228990000Y-83875714D01*
X229037619Y-83828095D01*
X229132857Y-83780476D01*
X229228095Y-83780476D01*
X229370952Y-83828095D01*
X229942380Y-84399523D01*
X229942380Y-83780476D01*
X228942380Y-83161428D02*
X228942380Y-83066190D01*
X228990000Y-82970952D01*
X229037619Y-82923333D01*
X229132857Y-82875714D01*
X229323333Y-82828095D01*
X229561428Y-82828095D01*
X229751904Y-82875714D01*
X229847142Y-82923333D01*
X229894761Y-82970952D01*
X229942380Y-83066190D01*
X229942380Y-83161428D01*
X229894761Y-83256666D01*
X229847142Y-83304285D01*
X229751904Y-83351904D01*
X229561428Y-83399523D01*
X229323333Y-83399523D01*
X229132857Y-83351904D01*
X229037619Y-83304285D01*
X228990000Y-83256666D01*
X228942380Y-83161428D01*
%TO.C,R21*%
X237052380Y-108322857D02*
X236576190Y-108656190D01*
X237052380Y-108894285D02*
X236052380Y-108894285D01*
X236052380Y-108513333D01*
X236100000Y-108418095D01*
X236147619Y-108370476D01*
X236242857Y-108322857D01*
X236385714Y-108322857D01*
X236480952Y-108370476D01*
X236528571Y-108418095D01*
X236576190Y-108513333D01*
X236576190Y-108894285D01*
X236147619Y-107941904D02*
X236100000Y-107894285D01*
X236052380Y-107799047D01*
X236052380Y-107560952D01*
X236100000Y-107465714D01*
X236147619Y-107418095D01*
X236242857Y-107370476D01*
X236338095Y-107370476D01*
X236480952Y-107418095D01*
X237052380Y-107989523D01*
X237052380Y-107370476D01*
X237052380Y-106418095D02*
X237052380Y-106989523D01*
X237052380Y-106703809D02*
X236052380Y-106703809D01*
X236195238Y-106799047D01*
X236290476Y-106894285D01*
X236338095Y-106989523D01*
%TO.C,RV1*%
D14*
X63954047Y-60264523D02*
X63530714Y-59659761D01*
X63228333Y-60264523D02*
X63228333Y-58994523D01*
X63712142Y-58994523D01*
X63833095Y-59055000D01*
X63893571Y-59115476D01*
X63954047Y-59236428D01*
X63954047Y-59417857D01*
X63893571Y-59538809D01*
X63833095Y-59599285D01*
X63712142Y-59659761D01*
X63228333Y-59659761D01*
X64316904Y-58994523D02*
X64740238Y-60264523D01*
X65163571Y-58994523D01*
X66252142Y-60264523D02*
X65526428Y-60264523D01*
X65889285Y-60264523D02*
X65889285Y-58994523D01*
X65768333Y-59175952D01*
X65647380Y-59296904D01*
X65526428Y-59357380D01*
%TO.C,TP1*%
D15*
X57158095Y-87292380D02*
X57729523Y-87292380D01*
X57443809Y-88292380D02*
X57443809Y-87292380D01*
X58062857Y-88292380D02*
X58062857Y-87292380D01*
X58443809Y-87292380D01*
X58539047Y-87340000D01*
X58586666Y-87387619D01*
X58634285Y-87482857D01*
X58634285Y-87625714D01*
X58586666Y-87720952D01*
X58539047Y-87768571D01*
X58443809Y-87816190D01*
X58062857Y-87816190D01*
X59586666Y-88292380D02*
X59015238Y-88292380D01*
X59300952Y-88292380D02*
X59300952Y-87292380D01*
X59205714Y-87435238D01*
X59110476Y-87530476D01*
X59015238Y-87578095D01*
%TO.C,TP2*%
X57158095Y-94912380D02*
X57729523Y-94912380D01*
X57443809Y-95912380D02*
X57443809Y-94912380D01*
X58062857Y-95912380D02*
X58062857Y-94912380D01*
X58443809Y-94912380D01*
X58539047Y-94960000D01*
X58586666Y-95007619D01*
X58634285Y-95102857D01*
X58634285Y-95245714D01*
X58586666Y-95340952D01*
X58539047Y-95388571D01*
X58443809Y-95436190D01*
X58062857Y-95436190D01*
X59015238Y-95007619D02*
X59062857Y-94960000D01*
X59158095Y-94912380D01*
X59396190Y-94912380D01*
X59491428Y-94960000D01*
X59539047Y-95007619D01*
X59586666Y-95102857D01*
X59586666Y-95198095D01*
X59539047Y-95340952D01*
X58967619Y-95912380D01*
X59586666Y-95912380D01*
%TO.C,TP3*%
X57158095Y-102532380D02*
X57729523Y-102532380D01*
X57443809Y-103532380D02*
X57443809Y-102532380D01*
X58062857Y-103532380D02*
X58062857Y-102532380D01*
X58443809Y-102532380D01*
X58539047Y-102580000D01*
X58586666Y-102627619D01*
X58634285Y-102722857D01*
X58634285Y-102865714D01*
X58586666Y-102960952D01*
X58539047Y-103008571D01*
X58443809Y-103056190D01*
X58062857Y-103056190D01*
X58967619Y-102532380D02*
X59586666Y-102532380D01*
X59253333Y-102913333D01*
X59396190Y-102913333D01*
X59491428Y-102960952D01*
X59539047Y-103008571D01*
X59586666Y-103103809D01*
X59586666Y-103341904D01*
X59539047Y-103437142D01*
X59491428Y-103484761D01*
X59396190Y-103532380D01*
X59110476Y-103532380D01*
X59015238Y-103484761D01*
X58967619Y-103437142D01*
%TO.C,TP4*%
X57158095Y-110152380D02*
X57729523Y-110152380D01*
X57443809Y-111152380D02*
X57443809Y-110152380D01*
X58062857Y-111152380D02*
X58062857Y-110152380D01*
X58443809Y-110152380D01*
X58539047Y-110200000D01*
X58586666Y-110247619D01*
X58634285Y-110342857D01*
X58634285Y-110485714D01*
X58586666Y-110580952D01*
X58539047Y-110628571D01*
X58443809Y-110676190D01*
X58062857Y-110676190D01*
X59491428Y-110485714D02*
X59491428Y-111152380D01*
X59253333Y-110104761D02*
X59015238Y-110819047D01*
X59634285Y-110819047D01*
%TO.C,U1*%
X222758095Y-104002380D02*
X222758095Y-104811904D01*
X222805714Y-104907142D01*
X222853333Y-104954761D01*
X222948571Y-105002380D01*
X223139047Y-105002380D01*
X223234285Y-104954761D01*
X223281904Y-104907142D01*
X223329523Y-104811904D01*
X223329523Y-104002380D01*
X224329523Y-105002380D02*
X223758095Y-105002380D01*
X224043809Y-105002380D02*
X224043809Y-104002380D01*
X223948571Y-104145238D01*
X223853333Y-104240476D01*
X223758095Y-104288095D01*
%TO.C,U2*%
X198628095Y-79672380D02*
X198628095Y-80481904D01*
X198675714Y-80577142D01*
X198723333Y-80624761D01*
X198818571Y-80672380D01*
X199009047Y-80672380D01*
X199104285Y-80624761D01*
X199151904Y-80577142D01*
X199199523Y-80481904D01*
X199199523Y-79672380D01*
X199628095Y-79767619D02*
X199675714Y-79720000D01*
X199770952Y-79672380D01*
X200009047Y-79672380D01*
X200104285Y-79720000D01*
X200151904Y-79767619D01*
X200199523Y-79862857D01*
X200199523Y-79958095D01*
X200151904Y-80100952D01*
X199580476Y-80672380D01*
X200199523Y-80672380D01*
%TD*%
M02*
