%TF.GenerationSoftware,KiCad,Pcbnew,(5.1.10)-1*%
%TF.CreationDate,2024-07-26T12:52:35+05:30*%
%TF.ProjectId,Flyback_DC-DC,466c7962-6163-46b5-9f44-432d44432e6b,rev?*%
%TF.SameCoordinates,Original*%
%TF.FileFunction,Legend,Bot*%
%TF.FilePolarity,Positive*%
%FSLAX46Y46*%
G04 Gerber Fmt 4.6, Leading zero omitted, Abs format (unit mm)*
G04 Created by KiCad (PCBNEW (5.1.10)-1) date 2024-07-26 12:52:35*
%MOMM*%
%LPD*%
G01*
G04 APERTURE LIST*
%ADD10C,0.300000*%
G04 APERTURE END LIST*
D10*
X70520000Y-129790000D02*
X69805714Y-129790000D01*
X70662857Y-130218571D02*
X70162857Y-128718571D01*
X69662857Y-130218571D01*
X68520000Y-130218571D02*
X68520000Y-128718571D01*
X68520000Y-130147142D02*
X68662857Y-130218571D01*
X68948571Y-130218571D01*
X69091428Y-130147142D01*
X69162857Y-130075714D01*
X69234285Y-129932857D01*
X69234285Y-129504285D01*
X69162857Y-129361428D01*
X69091428Y-129290000D01*
X68948571Y-129218571D01*
X68662857Y-129218571D01*
X68520000Y-129290000D01*
X67805714Y-130218571D02*
X67805714Y-129218571D01*
X67805714Y-128718571D02*
X67877142Y-128790000D01*
X67805714Y-128861428D01*
X67734285Y-128790000D01*
X67805714Y-128718571D01*
X67805714Y-128861428D01*
X67305714Y-129218571D02*
X66734285Y-129218571D01*
X67091428Y-128718571D02*
X67091428Y-130004285D01*
X67020000Y-130147142D01*
X66877142Y-130218571D01*
X66734285Y-130218571D01*
X66234285Y-130218571D02*
X66234285Y-128718571D01*
X65591428Y-130218571D02*
X65591428Y-129432857D01*
X65662857Y-129290000D01*
X65805714Y-129218571D01*
X66020000Y-129218571D01*
X66162857Y-129290000D01*
X66234285Y-129361428D01*
X65020000Y-129218571D02*
X64662857Y-130218571D01*
X64305714Y-129218571D02*
X64662857Y-130218571D01*
X64805714Y-130575714D01*
X64877142Y-130647142D01*
X65020000Y-130718571D01*
X63091428Y-130218571D02*
X63091428Y-129432857D01*
X63162857Y-129290000D01*
X63305714Y-129218571D01*
X63591428Y-129218571D01*
X63734285Y-129290000D01*
X63091428Y-130147142D02*
X63234285Y-130218571D01*
X63591428Y-130218571D01*
X63734285Y-130147142D01*
X63805714Y-130004285D01*
X63805714Y-129861428D01*
X63734285Y-129718571D01*
X63591428Y-129647142D01*
X63234285Y-129647142D01*
X63091428Y-129575714D01*
X61305714Y-130147142D02*
X61091428Y-130218571D01*
X60734285Y-130218571D01*
X60591428Y-130147142D01*
X60520000Y-130075714D01*
X60448571Y-129932857D01*
X60448571Y-129790000D01*
X60520000Y-129647142D01*
X60591428Y-129575714D01*
X60734285Y-129504285D01*
X61020000Y-129432857D01*
X61162857Y-129361428D01*
X61234285Y-129290000D01*
X61305714Y-129147142D01*
X61305714Y-129004285D01*
X61234285Y-128861428D01*
X61162857Y-128790000D01*
X61020000Y-128718571D01*
X60662857Y-128718571D01*
X60448571Y-128790000D01*
X59877142Y-130147142D02*
X59662857Y-130218571D01*
X59305714Y-130218571D01*
X59162857Y-130147142D01*
X59091428Y-130075714D01*
X59020000Y-129932857D01*
X59020000Y-129790000D01*
X59091428Y-129647142D01*
X59162857Y-129575714D01*
X59305714Y-129504285D01*
X59591428Y-129432857D01*
X59734285Y-129361428D01*
X59805714Y-129290000D01*
X59877142Y-129147142D01*
X59877142Y-129004285D01*
X59805714Y-128861428D01*
X59734285Y-128790000D01*
X59591428Y-128718571D01*
X59234285Y-128718571D01*
X59020000Y-128790000D01*
M02*
